<svg width="23" height="24" viewBox="0 0 23 24" fill="none" xmlns="http://www.w3.org/2000/svg">
<path fill-rule="evenodd" clip-rule="evenodd" d="M7.03125 1.74805C7.54902 1.74805 7.96875 2.16778 7.96875 2.68555V3.62305H14.5312V2.68555C14.5312 2.16778 14.951 1.74805 15.4688 1.74805C15.9865 1.74805 16.4062 2.16778 16.4062 2.68555V3.64619C18.775 3.88138 20.625 5.87992 20.625 8.31055V16.748C20.625 19.3369 18.5263 21.4355 15.9375 21.4355H6.5625C3.97367 21.4355 1.875 19.3369 1.875 16.748V8.31055C1.875 5.87992 3.72501 3.88138 6.09375 3.64619V2.68555C6.09375 2.16778 6.51348 1.74805 7.03125 1.74805ZM3.91004 7.37305H18.59C18.2039 6.28068 17.1621 5.49805 15.9375 5.49805H6.5625C5.33792 5.49805 4.29613 6.28068 3.91004 7.37305ZM18.75 9.24805H3.75V16.748C3.75 18.3013 5.0092 19.5605 6.5625 19.5605H15.9375C17.4908 19.5605 18.75 18.3013 18.75 16.748V9.24805Z" fill="black"/>
</svg>
