<svg width="25" height="24" viewBox="0 0 25 24" fill="none" xmlns="http://www.w3.org/2000/svg">
<g clip-path="url(#clip0_1135_2975)">
<path d="M8.95775 20.3184L2.32675 13.6864C1.79652 13.1267 1.5056 12.3822 1.51589 11.6113C1.52618 10.8403 1.83686 10.1038 2.38184 9.55848C2.92682 9.01308 3.66309 8.70187 4.43401 8.69103C5.20493 8.68019 5.94965 8.97057 6.50975 9.50038L10.7278 13.7184L18.6278 3.1854C18.8609 2.87423 19.1531 2.61204 19.4876 2.41378C19.8221 2.21553 20.1924 2.0851 20.5773 2.02994C20.9622 1.97479 21.3541 1.99598 21.7309 2.09231C22.1076 2.18865 22.4616 2.35824 22.7728 2.5914C23.0839 2.82456 23.3461 3.11673 23.5444 3.45122C23.7426 3.78572 23.8731 4.15598 23.9282 4.54088C23.9834 4.92578 23.9622 5.31777 23.8659 5.69448C23.7695 6.07119 23.5999 6.42523 23.3668 6.7364L13.4198 20.0014C13.1652 20.3407 12.8408 20.6213 12.4683 20.8243C12.0959 21.0273 11.6842 21.1479 11.2611 21.178C10.838 21.208 10.4134 21.1469 10.016 20.9986C9.6186 20.8503 9.25771 20.6183 8.95775 20.3184Z" stroke="#475367" stroke-width="1.5" stroke-linejoin="round"/>
</g>
<defs>
<clipPath id="clip0_1135_2975">
<rect width="24" height="24" fill="white" transform="translate(0.515625)"/>
</clipPath>
</defs>
</svg>
