<svg width="128" height="143" viewBox="0 0 128 143" fill="none" xmlns="http://www.w3.org/2000/svg">
<path d="M64.2106 60.6381L19.9722 74.3952L64.2106 87.8826L108.854 74.3952L64.2106 60.6381Z" fill="#DDF4EC"/>
<path d="M90.4525 103.523L65.0361 140.471L109.466 128.07V98.2728L90.4525 103.523Z" fill="#DDF4EC"/>
<path d="M34.0176 31.6525L42.4684 41.4178" stroke="#007C52" stroke-width="1.65451" stroke-linecap="round"/>
<path d="M42.4683 31.6525L34.0174 41.4177" stroke="#007C52" stroke-width="1.65451" stroke-linecap="round"/>
<path d="M75.896 20.114L86.0369 31.8322" stroke="#007C52" stroke-width="1.98539" stroke-linecap="round"/>
<path d="M86.0371 20.1142L75.8962 31.8324" stroke="#007C52" stroke-width="1.98539" stroke-linecap="round"/>
<path d="M89.7129 124.568L102.497 120.791" stroke="#007C52" stroke-width="1.65451"/>
<path d="M93.8247 116.203L102.497 113.86" stroke="#007C52" stroke-width="1.65451"/>
<path d="M63.855 102.196V96.9662" stroke="#007C52" stroke-width="2"/>
<path d="M63.5645 142V107.135" stroke="#007C52" stroke-width="2"/>
<path d="M17.6592 97.5472V127.763L63.2738 141.419L109.179 127.763V98.2725" stroke="#007C52" stroke-width="2"/>
<path d="M63.5645 61.2305V75.4666" stroke="#007C52" stroke-width="1.65451"/>
<path d="M78.9629 48.1556L64.1455 60.9395L109.179 74.3043L121.963 60.9395L78.9629 48.1556Z" fill="#FDFDFD" stroke="#007C52" stroke-width="2"/>
<path d="M5.45654 60.9394L19.4023 74.3043L62.4021 60.9394L49.0373 48.7368L5.45654 60.9394Z" fill="#FDFDFD" stroke="#007C52" stroke-width="2"/>
<path d="M108.598 74.5946L64.1455 87.6692L79.544 105.973L126.03 93.7704L108.598 74.5946Z" fill="#FDFDFD" stroke="#007C52" stroke-width="2"/>
<path d="M19.1119 74.3044L1.97021 92.6085L47.5848 106.554L63.2739 87.6691L19.1119 74.3044Z" fill="#FDFDFD" stroke="#007C52" stroke-width="2"/>
<circle cx="68.5146" cy="4.36913" r="3.54187" stroke="#007C52" stroke-width="1.65451"/>
<circle cx="50.7412" cy="21.6039" r="4.36913" fill="#007C52"/>
<circle cx="103.473" cy="37.5932" r="3.23887" fill="#007C52"/>
</svg>
