<svg width="25" height="24" viewBox="0 0 25 24" fill="none" xmlns="http://www.w3.org/2000/svg">
<path d="M6.51562 9.75C6.51562 11.3413 7.14777 12.8674 8.27298 13.9926C9.3982 15.1179 10.9243 15.75 12.5156 15.75C14.1069 15.75 15.633 15.1179 16.7582 13.9926C17.8835 12.8674 18.5156 11.3413 18.5156 9.75C18.5156 8.1587 17.8835 6.63258 16.7582 5.50736C15.633 4.38214 14.1069 3.75 12.5156 3.75C10.9243 3.75 9.3982 4.38214 8.27298 5.50736C7.14777 6.63258 6.51562 8.1587 6.51562 9.75Z" stroke="#475367" stroke-width="1.5" stroke-linecap="round" stroke-linejoin="round"/>
<path d="M7.31543 6.75098H8.76543C9.16326 6.75098 9.54479 6.90901 9.82609 7.19032C10.1074 7.47162 10.2654 7.85315 10.2654 8.25098V8.95098C10.2654 9.19791 10.3264 9.44102 10.443 9.65873C10.5595 9.87644 10.7279 10.062 10.9334 10.199L11.8914 10.838C12.0836 10.9657 12.2413 11.139 12.3504 11.3425C12.4594 11.5459 12.5165 11.7732 12.5165 12.004C12.5165 12.2348 12.4594 12.462 12.3504 12.6655C12.2413 12.8689 12.0836 13.0422 11.8914 13.17L9.36043 14.854" stroke="#475367" stroke-width="1.5" stroke-linecap="round" stroke-linejoin="round"/>
<path d="M17.716 6.75098H17.016C16.7603 6.7509 16.5088 6.81621 16.2854 6.9407C16.062 7.0652 15.8741 7.24474 15.7396 7.46227C15.6052 7.67981 15.5286 7.92811 15.5171 8.18359C15.5056 8.43907 15.5596 8.69325 15.674 8.92198C16.101 9.77598 16.199 9.81698 16.464 9.97598L18.364 11.114" stroke="#475367" stroke-width="1.5" stroke-linecap="round" stroke-linejoin="round"/>
<path d="M21.5156 9.75C21.5156 17.65 14.5836 22.081 12.8866 23.05C12.7734 23.1144 12.6454 23.1483 12.5151 23.1483C12.3848 23.1483 12.2568 23.1144 12.1436 23.05C10.4466 22.08 3.51562 17.648 3.51562 9.75C3.51562 7.36305 4.46384 5.07387 6.15167 3.38604C7.8395 1.69821 10.1287 0.75 12.5156 0.75C14.9025 0.75 17.1917 1.69821 18.8796 3.38604C20.5674 5.07387 21.5156 7.36305 21.5156 9.75Z" stroke="#475367" stroke-width="1.5" stroke-linecap="round" stroke-linejoin="round"/>
</svg>
