<svg width="25" height="25" viewBox="0 0 25 25" fill="none" xmlns="http://www.w3.org/2000/svg">
<path d="M16.2819 9.00195H8.21692C8.00425 9.01058 7.80242 9.09813 7.65081 9.24752C7.49919 9.39691 7.40868 9.59743 7.39692 9.80995L6.17892 18.56C6.16152 18.6805 6.16942 18.8033 6.20213 18.9205C6.23483 19.0378 6.29162 19.147 6.36887 19.2411C6.44612 19.3352 6.54214 19.4121 6.65079 19.467C6.75944 19.5219 6.87835 19.5536 6.99992 19.56H17.4999C17.6215 19.5536 17.7404 19.5219 17.8491 19.467C17.9577 19.4121 18.0537 19.3352 18.131 19.2411C18.2082 19.147 18.265 19.0378 18.2977 18.9205C18.3304 18.8033 18.3383 18.6805 18.3209 18.56L17.1029 9.80995C17.0912 9.59727 17.0005 9.39661 16.8487 9.2472C16.6969 9.09778 16.4948 9.01034 16.2819 9.00195Z" stroke="black" stroke-width="1.5" stroke-linecap="round" stroke-linejoin="round"/>
<path d="M3 0.810547H21.5C21.5 0.810547 23.5 0.810547 23.5 2.81055V21.3105C23.5 21.3105 23.5 23.3105 21.5 23.3105H3C3 23.3105 1 23.3105 1 21.3105V2.81055C1 2.81055 1 0.810547 3 0.810547Z" stroke="black" stroke-width="1.5" stroke-linecap="round" stroke-linejoin="round"/>
<path d="M15.25 9.00196H9.25V7.50195C9.25 6.70631 9.56607 5.94324 10.1287 5.38063C10.6913 4.81803 11.4544 4.50195 12.25 4.50195C13.0456 4.50195 13.8087 4.81803 14.3713 5.38063C14.9339 5.94324 15.25 6.70631 15.25 7.50195V9.00196Z" stroke="black" stroke-width="1.5" stroke-linecap="round" stroke-linejoin="round"/>
</svg>
