<svg width="50" height="50" viewBox="0 0 50 50" fill="none" xmlns="http://www.w3.org/2000/svg">
<circle cx="25" cy="25" r="24.5" fill="#007C52" stroke="#007C52"/>
<path d="M19.74 32V30.64L25.44 25.14C25.9467 24.66 26.32 24.24 26.56 23.88C26.8133 23.5067 26.98 23.1667 27.06 22.86C27.1533 22.54 27.2 22.2333 27.2 21.94C27.2 21.22 26.9467 20.6533 26.44 20.24C25.9333 19.8267 25.1933 19.62 24.22 19.62C23.4733 19.62 22.8 19.7467 22.2 20C21.6 20.24 21.08 20.62 20.64 21.14L19.28 19.96C19.8133 19.28 20.5267 18.76 21.42 18.4C22.3267 18.0267 23.32 17.84 24.4 17.84C25.3733 17.84 26.22 18 26.94 18.32C27.66 18.6267 28.2133 19.0733 28.6 19.66C29 20.2467 29.2 20.94 29.2 21.74C29.2 22.1933 29.14 22.64 29.02 23.08C28.9 23.52 28.6733 23.9867 28.34 24.48C28.0067 24.9733 27.5267 25.5267 26.9 26.14L21.82 31.04L21.34 30.26H29.8V32H19.74Z" fill="white"/>
</svg>
