<svg width="65" height="64" viewBox="0 0 65 64" fill="none" xmlns="http://www.w3.org/2000/svg">
<path d="M62.2004 62.0001L62.4672 59.0054C62.6432 57.0686 62.1076 55.1339 60.9602 53.5635C59.813 51.9929 58.133 50.8939 56.234 50.4721L46.9762 48.3094V33.0001C46.9626 32.3323 46.8167 31.6739 46.5476 31.0627C46.2782 30.4516 45.8909 29.8996 45.4073 29.4388C44.924 28.9777 44.3543 28.6169 43.731 28.3769C43.1077 28.1369 42.443 28.0225 41.7752 28.0401C41.1238 28.0132 40.4741 28.1241 39.8687 28.3662C39.2632 28.6081 38.7156 28.9753 38.2622 29.4438C37.8088 29.9121 37.4597 30.4713 37.2377 31.0841C37.0158 31.6971 36.926 32.3499 36.9742 33.0001V57.5334L33.0321 54.5921C32.2451 54.0043 31.2723 53.7195 30.2921 53.7899C29.312 53.8606 28.3902 54.2817 27.6951 54.9761C27.0001 55.6707 26.5785 56.5923 26.5075 57.5721C26.4365 58.5521 26.7209 59.5246 27.3084 60.3121L28.5753 62.0001" stroke="#007C52" stroke-width="3.75" stroke-linecap="round" stroke-linejoin="round"/>
<path d="M24.4974 46C20.4061 45.9986 16.3963 44.857 12.9181 42.7032C9.43997 40.5496 6.63127 37.4688 4.80742 33.8074C2.9836 30.1458 2.21688 26.0485 2.59338 21.9754C2.96989 17.9023 4.47469 14.0148 6.93882 10.7496C9.40293 7.48426 12.7288 4.97048 16.5428 3.4905C20.3569 2.01052 24.5081 1.62297 28.5302 2.37137C32.5523 3.11978 36.2864 4.9745 39.3125 7.72722C42.3385 10.48 44.5373 14.0217 45.6615 17.9547" stroke="#007C52" stroke-width="3.75" stroke-linecap="round" stroke-linejoin="round"/>
<path d="M30.784 14.5707H21.9584C21.4558 14.5304 20.9505 14.5998 20.4774 14.774C20.0043 14.9482 19.5747 15.2231 19.2183 15.5797C18.8619 15.9363 18.5873 16.366 18.4133 16.8391C18.2394 17.3123 18.1704 17.8176 18.211 18.32C18.211 22.4267 30.784 25.5707 30.784 29.68C30.7912 30.1722 30.6997 30.661 30.5146 31.117C30.3295 31.5733 30.0546 31.9877 29.7065 32.336C29.3584 32.684 28.9437 32.9586 28.4876 33.1437C28.0312 33.3288 27.5423 33.4205 27.0501 33.4133H18.211" stroke="#007C52" stroke-width="3.75" stroke-linecap="round" stroke-linejoin="round"/>
<path d="M24.4974 14.5706V9.85596" stroke="#007C52" stroke-width="3.75" stroke-linecap="round" stroke-linejoin="round"/>
<path d="M24.4974 38.1414V33.4268" stroke="#007C52" stroke-width="3.75" stroke-linecap="round" stroke-linejoin="round"/>
</svg>
