<svg width="65" height="64" viewBox="0 0 65 64" fill="none" xmlns="http://www.w3.org/2000/svg">
<path d="M2.5 32C2.5 39.9565 5.66069 47.5872 11.2868 53.2133C16.9129 58.8392 24.5435 62 32.5 62C40.4565 62 48.0872 58.8392 53.7133 53.2133C59.3392 47.5872 62.5 39.9565 62.5 32C62.5 24.0435 59.3392 16.4129 53.7133 10.7868C48.0872 5.16069 40.4565 2 32.5 2C24.5435 2 16.9129 5.16069 11.2868 10.7868C5.66069 16.4129 2.5 24.0435 2.5 32Z" stroke="#007C52" stroke-width="3.75" stroke-linecap="round" stroke-linejoin="round"/>
<path d="M47.38 20.0428C47.5189 19.634 47.5408 19.1945 47.4429 18.774C47.3451 18.3535 47.1312 17.9688 46.8259 17.6635C46.5208 17.3582 46.136 17.1445 45.7155 17.0466C45.2949 16.9486 44.8555 16.9705 44.4467 17.1095L24.3293 23.8295L40.6707 40.1709L47.38 20.0428Z" stroke="#007C52" stroke-width="3.75" stroke-linecap="round" stroke-linejoin="round"/>
<path d="M24.3294 23.8296L17.6174 43.9575C17.4784 44.3663 17.4565 44.8057 17.5545 45.2263C17.6524 45.6468 17.8661 46.0316 18.1714 46.3369C18.4767 46.6423 18.8614 46.8559 19.2819 46.9537C19.7024 47.0516 20.1419 47.03 20.5507 46.8908L40.6787 40.1815" stroke="#007C52" stroke-width="3.75" stroke-linecap="round" stroke-linejoin="round"/>
</svg>
