<svg width="61" height="60" viewBox="0 0 61 60" fill="none" xmlns="http://www.w3.org/2000/svg">
<path d="M10.2852 20.332C10.2852 22.8961 11.3037 25.3552 13.1168 27.1683C14.9299 28.9814 17.389 30 19.9531 30C22.5172 30 24.9763 28.9814 26.7894 27.1683C28.6025 25.3552 29.6211 22.8961 29.6211 20.332C29.6211 17.7679 28.6025 15.3088 26.7894 13.4957C24.9763 11.6827 22.5172 10.6641 19.9531 10.6641C17.389 10.6641 14.9299 11.6827 13.1168 13.4957C11.3037 15.3088 10.2852 17.7679 10.2852 20.332Z" stroke="#007C52" stroke-width="3.75" stroke-linecap="round" stroke-linejoin="round"/>
<path d="M4.13281 49.3359C4.13281 45.1402 5.79959 41.1162 8.76648 38.1492C11.7334 35.1825 15.7573 33.5156 19.9531 33.5156C24.1489 33.5156 28.1729 35.1825 31.1398 38.1492C34.1066 41.1162 35.7734 45.1402 35.7734 49.3359" stroke="#007C52" stroke-width="3.75" stroke-linecap="round" stroke-linejoin="round"/>
<path d="M36.0128 25.6055C36.0128 27.7034 36.846 29.7152 38.3296 31.1988C39.8129 32.6822 41.8248 33.5156 43.9227 33.5156C46.0208 33.5156 48.0327 32.6822 49.516 31.1988C50.9996 29.7152 51.8328 27.7034 51.8328 25.6055C51.8328 23.5076 50.9996 21.4956 49.516 20.0121C48.0327 18.5287 46.0208 17.6953 43.9227 17.6953C41.8248 17.6953 39.8129 18.5287 38.3296 20.0121C36.846 21.4956 36.0128 23.5076 36.0128 25.6055Z" stroke="#007C52" stroke-width="3.75" stroke-linecap="round" stroke-linejoin="round"/>
<path d="M39.4367 37.1907C41.394 36.4693 43.4963 36.2314 45.5654 36.4972C47.6342 36.7627 49.6083 37.5242 51.32 38.7167C53.0314 39.9092 54.4294 41.4976 55.3953 43.3463C56.3609 45.1953 56.866 47.2501 56.8672 49.336" stroke="#007C52" stroke-width="3.75" stroke-linecap="round" stroke-linejoin="round"/>
</svg>
