<svg width="50" height="50" viewBox="0 0 50 50" fill="none" xmlns="http://www.w3.org/2000/svg">
<circle cx="25" cy="25" r="24.5" stroke="#007C52"/>
<path d="M20.3991 32.5V30.9091L25.321 25.8097C25.8466 25.2557 26.2798 24.7704 26.6207 24.3537C26.9664 23.9323 27.2244 23.5322 27.3949 23.1534C27.5653 22.7746 27.6506 22.3722 27.6506 21.946C27.6506 21.4631 27.5369 21.0464 27.3097 20.696C27.0824 20.3409 26.7723 20.0687 26.3793 19.8793C25.9863 19.6851 25.5436 19.5881 25.0511 19.5881C24.5303 19.5881 24.0758 19.6946 23.6875 19.9077C23.2992 20.1207 23.0009 20.4214 22.7926 20.8097C22.5843 21.1979 22.4801 21.6525 22.4801 22.1733H20.3849C20.3849 21.2879 20.5885 20.5137 20.9957 19.8509C21.4029 19.188 21.9616 18.6742 22.6719 18.3097C23.3821 17.9403 24.1894 17.7557 25.0938 17.7557C26.0076 17.7557 26.8125 17.938 27.5085 18.3026C28.2093 18.6624 28.7562 19.1548 29.1491 19.7798C29.5421 20.4001 29.7386 21.1009 29.7386 21.8821C29.7386 22.4219 29.6368 22.9498 29.4332 23.4659C29.2344 23.982 28.8864 24.5573 28.3892 25.1918C27.892 25.8215 27.2008 26.5862 26.3153 27.4858L23.4247 30.5114V30.6179H29.973V32.5H20.3991Z" fill="#007C52"/>
</svg>
