<svg width="50" height="50" viewBox="0 0 50 50" fill="none" xmlns="http://www.w3.org/2000/svg">
<circle cx="25" cy="25" r="24.5" stroke="#98A2B3"/>
<path d="M19.74 33V31.64L25.44 26.14C25.9467 25.66 26.32 25.24 26.56 24.88C26.8133 24.5067 26.98 24.1667 27.06 23.86C27.1533 23.54 27.2 23.2333 27.2 22.94C27.2 22.22 26.9467 21.6533 26.44 21.24C25.9333 20.8267 25.1933 20.62 24.22 20.62C23.4733 20.62 22.8 20.7467 22.2 21C21.6 21.24 21.08 21.62 20.64 22.14L19.28 20.96C19.8133 20.28 20.5267 19.76 21.42 19.4C22.3267 19.0267 23.32 18.84 24.4 18.84C25.3733 18.84 26.22 19 26.94 19.32C27.66 19.6267 28.2133 20.0733 28.6 20.66C29 21.2467 29.2 21.94 29.2 22.74C29.2 23.1933 29.14 23.64 29.02 24.08C28.9 24.52 28.6733 24.9867 28.34 25.48C28.0067 25.9733 27.5267 26.5267 26.9 27.14L21.82 32.04L21.34 31.26H29.8V33H19.74Z" fill="#98A2B3"/>
</svg>
