<svg width="50" height="51" viewBox="0 0 50 51" fill="none" xmlns="http://www.w3.org/2000/svg">
<circle cx="25" cy="25.5" r="24.5" fill="#007C52" stroke="#007C52"/>
<path d="M25.4631 33.1989C24.4877 33.1989 23.6165 33.0308 22.8494 32.6946C22.0871 32.3584 21.4834 31.892 21.0384 31.2955C20.598 30.6941 20.3613 29.9981 20.3281 29.2074H22.5582C22.5866 29.6383 22.7311 30.0123 22.9915 30.3295C23.2566 30.642 23.6023 30.8835 24.0284 31.054C24.4545 31.2244 24.928 31.3097 25.4489 31.3097C26.0218 31.3097 26.5284 31.2102 26.9688 31.0114C27.4138 30.8125 27.7618 30.5355 28.0128 30.1804C28.2637 29.8205 28.3892 29.4062 28.3892 28.9375C28.3892 28.4498 28.2637 28.0213 28.0128 27.652C27.7666 27.2779 27.4044 26.9844 26.9261 26.7713C26.4527 26.5582 25.8797 26.4517 25.2074 26.4517H23.9787V24.6619H25.2074C25.7472 24.6619 26.2206 24.5649 26.6278 24.3707C27.0398 24.1766 27.3617 23.9067 27.5938 23.5611C27.8258 23.2107 27.9418 22.8011 27.9418 22.3324C27.9418 21.8826 27.84 21.492 27.6364 21.1605C27.4375 20.8243 27.1534 20.5616 26.7841 20.3722C26.4195 20.1828 25.9886 20.0881 25.4915 20.0881C25.018 20.0881 24.5753 20.1757 24.1634 20.3509C23.7562 20.5213 23.4247 20.7675 23.169 21.0895C22.9134 21.4067 22.776 21.7879 22.7571 22.233H20.6335C20.6572 21.447 20.8892 20.7557 21.3295 20.1591C21.7746 19.5625 22.3617 19.0961 23.0909 18.7599C23.8201 18.4238 24.6297 18.2557 25.5199 18.2557C26.4527 18.2557 27.2576 18.438 27.9347 18.8026C28.6165 19.1624 29.142 19.643 29.5114 20.2443C29.8854 20.8456 30.0701 21.5038 30.0653 22.2188C30.0701 23.0331 29.8428 23.7244 29.3835 24.2926C28.929 24.8608 28.3229 25.242 27.5653 25.4361V25.5497C28.5313 25.6965 29.2794 26.08 29.8097 26.7003C30.3447 27.3205 30.6098 28.09 30.6051 29.0085C30.6098 29.8087 30.3873 30.526 29.9375 31.1605C29.4924 31.795 28.884 32.2945 28.1122 32.6591C27.3404 33.0189 26.4574 33.1989 25.4631 33.1989Z" fill="white"/>
</svg>
