<svg width="50" height="51" viewBox="0 0 50 51" fill="none" xmlns="http://www.w3.org/2000/svg">
<circle cx="25" cy="25.5" r="24.5" stroke="#98A2B3"/>
<path d="M24.24 33.16C23.2533 33.16 22.2933 33.0067 21.36 32.7C20.44 32.3933 19.6867 31.98 19.1 31.46L20.02 29.88C20.4867 30.32 21.0933 30.68 21.84 30.96C22.5867 31.24 23.3867 31.38 24.24 31.38C25.28 31.38 26.0867 31.16 26.66 30.72C27.2467 30.2667 27.54 29.66 27.54 28.9C27.54 28.1667 27.26 27.58 26.7 27.14C26.1533 26.6867 25.28 26.46 24.08 26.46H22.96V25.06L27.12 19.94L27.4 20.74H19.74V19H28.98V20.36L24.84 25.46L23.8 24.84H24.46C26.1533 24.84 27.42 25.22 28.26 25.98C29.1133 26.74 29.54 27.7067 29.54 28.88C29.54 29.6667 29.3467 30.3867 28.96 31.04C28.5733 31.6933 27.9867 32.2133 27.2 32.6C26.4267 32.9733 25.44 33.16 24.24 33.16Z" fill="#98A2B3"/>
</svg>
