<svg width="16" height="9" viewBox="0 0 16 9" fill="none" xmlns="http://www.w3.org/2000/svg">
<path d="M15.7869 1.2809L8.51452 8.78006C8.44698 8.84978 8.36677 8.9051 8.27849 8.94284C8.1902 8.98058 8.09557 9 8 9C7.90443 9 7.8098 8.98058 7.72151 8.94284C7.63323 8.9051 7.55302 8.84978 7.48548 8.78006L0.213121 1.2809C0.0766618 1.14018 0 0.949334 0 0.750333C0 0.551332 0.0766618 0.360482 0.213121 0.219767C0.34958 0.0790523 0.534658 0 0.72764 0C0.920622 0 1.1057 0.0790523 1.24216 0.219767L8 7.1893L14.7578 0.219767C14.8254 0.150092 14.9056 0.0948231 14.9939 0.0571154C15.0822 0.0194076 15.1768 0 15.2724 0C15.3679 0 15.4625 0.0194076 15.5508 0.0571154C15.6391 0.0948231 15.7193 0.150092 15.7869 0.219767C15.8544 0.289442 15.908 0.372158 15.9446 0.463193C15.9812 0.554227 16 0.651798 16 0.750333C16 0.848868 15.9812 0.946439 15.9446 1.03747C15.908 1.12851 15.8544 1.21122 15.7869 1.2809Z" fill="#007C52"/>
</svg>
