<svg width="26" height="26" viewBox="0 0 26 26" fill="none" xmlns="http://www.w3.org/2000/svg">
<path d="M21.1572 5.99103C21.4745 5.67373 21.4745 5.15928 21.1572 4.84198C20.8399 4.52468 20.3255 4.52468 20.0082 4.84198L12.9994 11.8508L5.99054 4.84198C5.67324 4.52468 5.15879 4.52468 4.84149 4.84198C4.52419 5.15928 4.52419 5.67373 4.84149 5.99103L11.8503 12.9999L4.84152 20.0086C4.52422 20.3259 4.52422 20.8404 4.84152 21.1577C5.15882 21.475 5.67327 21.475 5.99057 21.1577L12.9994 14.1489L20.0082 21.1577C20.3255 21.475 20.8399 21.475 21.1572 21.1577C21.4745 20.8404 21.4745 20.326 21.1572 20.0087L14.1484 12.9999L21.1572 5.99103Z" fill="#475367"/>
</svg>
