<svg width="23" height="24" viewBox="0 0 23 24" fill="none" xmlns="http://www.w3.org/2000/svg">
<g clip-path="url(#clip0_1220_4119)">
<path d="M5.625 9.95117C5.625 11.443 6.21763 12.8737 7.27252 13.9286C8.32742 14.9836 9.75816 15.5762 11.25 15.5762C12.7418 15.5762 14.1726 14.9836 15.2274 13.9286C16.2824 12.8737 16.875 11.443 16.875 9.95117C16.875 8.45933 16.2824 7.02859 15.2274 5.9737C14.1726 4.9188 12.7418 4.32617 11.25 4.32617C9.75816 4.32617 8.32742 4.9188 7.27252 5.9737C6.21763 7.02859 5.625 8.45933 5.625 9.95117Z" stroke="black" stroke-width="1.5" stroke-linecap="round" stroke-linejoin="round"/>
<path d="M6.375 7.13965H7.73437C8.10734 7.13965 8.46503 7.2878 8.72874 7.55153C8.99247 7.81525 9.14062 8.17293 9.14062 8.5459V9.20215C9.14064 9.43365 9.19781 9.66156 9.30706 9.86566C9.41634 10.0698 9.57422 10.2437 9.76688 10.3722L10.665 10.9712C10.8452 11.0909 10.993 11.2534 11.0953 11.4442C11.1975 11.6349 11.251 11.848 11.251 12.0644C11.251 12.2807 11.1975 12.4937 11.0953 12.6845C10.993 12.8752 10.8452 13.0377 10.665 13.1575L8.29219 14.7362" stroke="black" stroke-width="1.5" stroke-linecap="round" stroke-linejoin="round"/>
<path d="M16.1254 7.13965H15.4691C15.2294 7.13957 14.9936 7.2008 14.7842 7.31751C14.5748 7.43423 14.3986 7.60255 14.2725 7.80648C14.1465 8.01043 14.0747 8.24321 14.0639 8.48272C14.0531 8.72223 14.1038 8.96053 14.211 9.17496C14.6113 9.97559 14.7032 10.014 14.9516 10.1631L16.7329 11.23" stroke="black" stroke-width="1.5" stroke-linecap="round" stroke-linejoin="round"/>
<path d="M19.6875 9.95117C19.6875 17.3574 13.1888 21.5115 11.5978 22.4199C11.4917 22.4803 11.3717 22.5121 11.2495 22.5121C11.1274 22.5121 11.0074 22.4803 10.9013 22.4199C9.31031 21.5105 2.8125 17.3555 2.8125 9.95117C2.8125 7.71341 3.70145 5.5673 5.28379 3.98496C6.86613 2.40262 9.01223 1.51367 11.25 1.51367C13.4877 1.51367 15.6338 2.40262 17.2163 3.98496C18.7986 5.5673 19.6875 7.71341 19.6875 9.95117Z" stroke="black" stroke-width="1.5" stroke-linecap="round" stroke-linejoin="round"/>
</g>
<defs>
<clipPath id="clip0_1220_4119">
<rect width="22.5" height="22.5" fill="white" transform="translate(0 0.810547)"/>
</clipPath>
</defs>
</svg>
