<svg width="93" height="93" viewBox="0 0 93 93" fill="none" xmlns="http://www.w3.org/2000/svg">
<g filter="url(#filter0_d_425_14991)">
<circle cx="44.5882" cy="43.4014" r="34" transform="rotate(-1 44.5882 43.4014)" fill="#007C52"/>
</g>
<path d="M37.347 36.23C37.7498 34.9105 38.5094 33.7293 39.5424 32.8148C40.5754 31.9004 41.8424 31.2892 43.201 31.0493C44.5596 30.8093 45.9572 30.9496 47.2409 31.4549C48.5246 31.9603 49.6435 32.8112 50.474 33.9129C51.3045 35.0145 51.8131 36.324 51.9455 37.6972C52.0779 39.0704 51.8278 40.4539 51.2231 41.6939C50.6184 42.9339 49.6837 43.9817 48.5202 44.7231C47.3567 45.4644 46.0109 45.8694 44.6315 45.8935L44.675 48.3876M44.9796 65.8377C32.5882 66.054 22.3677 56.1842 22.1514 43.7928C21.9351 31.4014 31.805 21.1809 44.1963 20.9646C56.5877 20.7483 66.8083 30.6181 67.0246 43.0095C67.2409 55.4009 57.371 65.6214 44.9796 65.8377ZM44.9297 55.8638L44.9341 56.113L44.6858 56.1179L44.6814 55.8681L44.9297 55.8638Z" stroke="white" stroke-width="6" stroke-linecap="round" stroke-linejoin="round"/>
<defs>
<filter id="filter0_d_425_14991" x="0.78789" y="0.601367" width="91.6" height="91.6001" filterUnits="userSpaceOnUse" color-interpolation-filters="sRGB">
<feFlood flood-opacity="0" result="BackgroundImageFix"/>
<feColorMatrix in="SourceAlpha" type="matrix" values="0 0 0 0 0 0 0 0 0 0 0 0 0 0 0 0 0 0 127 0" result="hardAlpha"/>
<feOffset dx="2" dy="3"/>
<feGaussianBlur stdDeviation="5.9"/>
<feComposite in2="hardAlpha" operator="out"/>
<feColorMatrix type="matrix" values="0 0 0 0 0 0 0 0 0 0 0 0 0 0 0 0 0 0 0.25 0"/>
<feBlend mode="normal" in2="BackgroundImageFix" result="effect1_dropShadow_425_14991"/>
<feBlend mode="normal" in="SourceGraphic" in2="effect1_dropShadow_425_14991" result="shape"/>
</filter>
</defs>
</svg>
