<svg width="23" height="24" viewBox="0 0 23 24" fill="none" xmlns="http://www.w3.org/2000/svg">
<g clip-path="url(#clip0_1220_424)">
<path d="M3.16406 8.1582C3.16406 9.18385 3.5715 10.1675 4.29673 10.8927C5.02197 11.618 6.00561 12.0254 7.03125 12.0254C8.05689 12.0254 9.04053 11.618 9.76575 10.8927C10.491 10.1675 10.8984 9.18385 10.8984 8.1582C10.8984 7.13256 10.491 6.14892 9.76575 5.42368C9.04053 4.69845 8.05689 4.29102 7.03125 4.29102C6.00561 4.29102 5.02197 4.69845 4.29673 5.42368C3.5715 6.14892 3.16406 7.13256 3.16406 8.1582Z" stroke="black" stroke-width="1.5" stroke-linecap="round" stroke-linejoin="round"/>
<path d="M0.703125 19.7598C0.703125 18.0815 1.36984 16.4719 2.55659 15.2851C3.74334 14.0984 5.35293 13.4316 7.03125 13.4316C8.70957 13.4316 10.3192 14.0984 11.5059 15.2851C12.6926 16.4719 13.3594 18.0815 13.3594 19.7598" stroke="black" stroke-width="1.5" stroke-linecap="round" stroke-linejoin="round"/>
<path d="M13.4551 10.2676C13.4551 11.1067 13.7884 11.9115 14.3818 12.5049C14.9751 13.0983 15.7799 13.4316 16.619 13.4316C17.4583 13.4316 18.263 13.0983 18.8564 12.5049C19.4498 11.9115 19.7831 11.1067 19.7831 10.2676C19.7831 9.42841 19.4498 8.62363 18.8564 8.03024C18.263 7.43687 17.4583 7.10352 16.619 7.10352C15.7799 7.10352 14.9751 7.43687 14.3818 8.03024C13.7884 8.62363 13.4551 9.42841 13.4551 10.2676Z" stroke="black" stroke-width="1.5" stroke-linecap="round" stroke-linejoin="round"/>
<path d="M14.8242 14.9017C15.6071 14.6131 16.4481 14.5179 17.2757 14.6243C18.1032 14.7305 18.8929 15.0351 19.5775 15.5121C20.2621 15.9891 20.8213 16.6244 21.2077 17.3639C21.5939 18.1035 21.7959 18.9254 21.7964 19.7598" stroke="black" stroke-width="1.5" stroke-linecap="round" stroke-linejoin="round"/>
</g>
<defs>
<clipPath id="clip0_1220_424">
<rect width="22.5" height="22.5" fill="white" transform="translate(0 0.775391)"/>
</clipPath>
</defs>
</svg>
