<svg width="24" height="23" viewBox="0 0 24 23" fill="none" xmlns="http://www.w3.org/2000/svg">
<path d="M20.1 3.25652C20.4629 3.61938 20.4629 4.2077 20.1 4.57056L5.23336 19.4372C4.87049 19.8001 4.28218 19.8001 3.91932 19.4372C3.55645 19.0744 3.55645 18.486 3.91932 18.1232L18.786 3.25652C19.1488 2.89366 19.7372 2.89366 20.1 3.25652Z" fill="#667185"/>
<path d="M15.54 5.1884C14.4935 4.69555 13.3135 4.37812 12.0097 4.37812C9.2741 4.37812 7.08394 5.7753 5.52742 7.25824C3.96733 8.74459 2.95503 10.3988 2.55432 11.1144C2.29172 11.5833 2.26044 12.1433 2.476 12.6406C2.62653 12.9879 2.88254 13.526 3.25987 14.1504C3.52529 14.5896 4.09649 14.7304 4.53569 14.465C4.97488 14.1996 5.11575 13.6284 4.85033 13.1892C4.54684 12.687 4.33625 12.2527 4.20851 11.9642C4.58552 11.2998 5.47841 9.87165 6.80928 8.6037C8.18396 7.294 9.93765 6.23646 12.0097 6.23646C12.7549 6.23646 13.459 6.37327 14.119 6.60941L15.54 5.1884Z" fill="#667185"/>
<path d="M17.2971 8.68749C18.5799 9.93404 19.4421 11.3144 19.8108 11.9642C19.6831 12.2527 19.4725 12.687 19.169 13.1892C18.9036 13.6284 19.0444 14.1996 19.4836 14.465C19.9228 14.7304 20.494 14.5896 20.7594 14.1504C21.1368 13.526 21.3928 12.9879 21.5433 12.6406C21.7589 12.1433 21.7276 11.5833 21.465 11.1144C21.0746 10.4172 20.1037 8.82913 18.6113 7.37334L17.2971 8.68749Z" fill="#667185"/>
<path d="M12.0097 7.63021C12.3473 7.63021 12.6766 7.66623 12.9938 7.73465L11.0817 9.64671C10.2887 9.92659 9.66021 10.5551 9.38034 11.3481L7.46828 13.2602C7.39986 12.943 7.36383 12.6137 7.36383 12.276C7.36383 9.71022 9.44385 7.63021 12.0097 7.63021Z" fill="#667185"/>
<path d="M12.0097 15.0635C11.6836 15.0635 11.3707 15.0076 11.0799 14.9047L9.68518 16.2994C10.3689 16.6953 11.1628 16.9219 12.0097 16.9219C14.5755 16.9219 16.6555 14.8419 16.6555 12.276C16.6555 11.4292 16.4289 10.6353 16.0331 9.95156L14.6383 11.3463C14.7412 11.6371 14.7972 11.95 14.7972 12.276C14.7972 13.8155 13.5492 15.0635 12.0097 15.0635Z" fill="#667185"/>
</svg>
