<svg width="22" height="18" viewBox="0 0 22 18" fill="none" xmlns="http://www.w3.org/2000/svg">
<path fill-rule="evenodd" clip-rule="evenodd" d="M17.5143 17.0492C19.567 17.0492 21.231 15.3852 21.231 13.3326V4.99113C21.2313 4.97692 21.2313 4.96267 21.231 4.9484V4.04088C21.231 1.98823 19.567 0.324219 17.5143 0.324219H4.50598C2.45332 0.324219 0.78931 1.98823 0.78931 4.04088V4.94841C0.788979 4.96267 0.788981 4.97692 0.78931 4.99112V13.3326C0.78931 15.3852 2.45332 17.0492 4.50598 17.0492H17.5143ZM2.64764 13.3326C2.64764 14.3589 3.47965 15.1909 4.50598 15.1909H17.5143C18.5406 15.1909 19.3726 14.3589 19.3726 13.3326V6.34246L12.3905 9.13533C11.5044 9.48976 10.5159 9.48976 9.62981 9.13533L2.64764 6.34246V13.3326ZM11.7003 7.40991L19.3726 4.34098V4.04088C19.3726 3.01456 18.5406 2.18255 17.5143 2.18255H4.50598C3.47965 2.18255 2.64764 3.01456 2.64764 4.04088V4.34098L10.32 7.40991C10.763 7.58713 11.2573 7.58713 11.7003 7.40991Z" fill="#667185"/>
</svg>
