<svg width="143" height="100" viewBox="0 0 143 100" fill="none" xmlns="http://www.w3.org/2000/svg">
<path d="M129.184 20.6077C130.384 17.9602 136.399 14.7502 134.269 13.8577C131.532 12.7027 127.302 13.4602 122.472 14.4202C116.862 6.44017 111.664 -0.294827 102.799 10.0027C99.4915 7.23517 92.299 5.56267 87.049 7.35517C84.4915 8.85517 90.664 11.7877 90.2365 13.4152C90.2365 14.3827 89.794 15.7552 86.8915 15.8902C72.1315 18.9502 83.3215 25.6402 87.2815 29.4352C98.8165 15.8602 93.229 22.2577 101.929 27.5227C102.814 27.3802 106.467 23.2477 107.974 23.0677C109.984 22.8277 111.724 30.9277 113.112 31.3777C118.587 25.7827 120.612 30.2677 122.719 38.6152C125.937 38.0602 126.379 36.4477 127.339 35.7127C130.242 40.7827 125.764 45.0277 124.339 46.5052C128.614 46.7752 132.529 41.8927 131.584 38.3752C134.584 37.4977 138.732 38.7577 139.017 36.0652C139.234 33.5002 136.902 27.2377 129.184 20.6077Z" fill="#007C52"/>
<path d="M60.4473 48.0876C57.7987 47.4998 55.1031 47.1485 52.3923 47.0376C49.5273 60.3051 20.7798 60.3126 16.3323 53.9226C13.3821 56.0978 11.373 59.3167 10.7148 62.9226C18.8298 64.2876 31.7148 79.4976 30.0123 86.9226C70.4598 84.6726 48.1398 74.8401 56.9298 63.9801C59.1561 64.7981 61.4431 65.4401 63.7698 65.9001C59.7348 60.8076 60.4473 48.0876 60.4473 48.0876Z" fill="#007C52"/>
<path d="M98.898 68.8324C97.9605 67.8049 98.478 64.0474 96.588 63.5824C94.698 63.1174 93.1605 66.4174 91.533 66.9049C89.9055 67.3924 86.283 66.4924 85.8255 68.2249C85.293 70.0924 87.753 71.1274 87.7155 72.9574C87.678 75.0349 84.8655 76.4899 86.073 78.3199C87.048 79.8199 90.198 78.3649 92.073 78.9349C94.2555 79.6099 96.168 82.8574 97.893 82.3324C99.618 81.8074 98.358 78.3049 99.393 76.4374C100.428 74.5699 103.773 73.8799 103.631 72.0274C103.488 70.1749 99.8355 69.8599 98.898 68.8324Z" fill="#007C52"/>
<path d="M98.148 33.4999C96.573 26.7499 85.893 30.5899 88.8855 36.7849C89.6355 38.3599 92.6355 37.1674 93.7455 38.6524C96.4905 40.0099 98.7255 36.0124 98.148 33.4999ZM90.2505 36.1549C90.0454 35.7051 89.9418 35.2157 89.9471 34.7214C89.9524 34.227 90.0665 33.7399 90.2813 33.2947C90.496 32.8494 90.8062 32.4569 91.1897 32.145C91.5733 31.8331 92.0208 31.6094 92.5005 31.4899C92.7163 33.3639 93.183 35.2003 93.888 36.9499C92.774 36.3491 91.5135 36.0737 90.2505 36.1549Z" fill="black"/>
<path d="M40.0903 52.8275C39.9033 52.7627 39.6982 52.7744 39.5198 52.8601C39.3414 52.9458 39.2041 53.0985 39.1378 53.285C38.5453 55.1 35.6053 55.205 34.5703 53.78C34.4498 53.6221 34.2716 53.5184 34.0748 53.4916C33.8779 53.4649 33.6785 53.5174 33.5203 53.6375C32.4328 55.1825 35.4628 56.33 36.7678 56.285C38.3953 56.495 41.7628 54.3125 40.0903 52.8275Z" fill="black"/>
<path d="M107.012 44.9675C106.007 44.585 96.3699 39.65 95.6649 43.6625C95.4774 46.46 96.3549 48.5825 98.9799 49.4375C103.127 51.1175 106.81 50.9375 107.372 45.6875C107.387 45.5457 107.361 45.4027 107.297 45.2751C107.233 45.1476 107.135 45.0409 107.012 44.9675ZM104.537 48.59C103.645 49.34 98.0649 48.5075 97.3749 46.1375C99.1816 46.7809 101.028 47.307 102.902 47.7125C105.235 46.7 101.867 45.7775 100.922 45.6575C98.9649 45.02 96.9024 44.96 97.2249 43.6025C100.067 43.685 104.027 45.155 105.805 46.0175C105.58 47.3825 105.175 48.2 104.537 48.59Z" fill="black"/>
<path d="M99.16 38.7876C99.22 40.3326 103.877 42.3351 104.507 40.6026C104.507 38.7201 98.1625 40.6026 101.32 35.7051C101.657 35.4304 102.067 35.2593 102.5 35.2128C102.932 35.1662 103.369 35.246 103.757 35.4426C108.1 34.1976 97.8475 31.1526 99.16 38.7876Z" fill="black"/>
<path d="M112.952 34.7374C109.029 34.3174 106.464 38.9974 108.302 42.2374C108.439 42.5262 108.666 42.7636 108.948 42.9147C109.23 43.0658 109.552 43.1228 109.869 43.0774C111.549 42.7849 113.147 43.6624 114.962 44.1499C119.912 42.7924 118.149 34.5199 112.952 34.7374ZM109.659 41.5474C109.382 41.0741 109.217 40.5433 109.178 39.9961C109.14 39.449 109.227 38.9002 109.435 38.3924C109.642 37.8846 109.964 37.4315 110.375 37.0681C110.786 36.7048 111.275 36.4411 111.804 36.2974C112.185 38.2661 112.786 40.1857 113.597 42.0199C112.331 41.5915 110.99 41.4306 109.659 41.5474Z" fill="black"/>
<path d="M130.323 20.075C141.828 11 134.501 7.69247 121.488 9.91247C115.976 -1.10503 110.351 -3.84253 102.648 8.44997C96.273 0.949969 72.9105 2.86247 86.898 12.845C81.603 12.845 75.828 16.37 75.1905 20.915C75.078 23.735 79.6905 25.5875 82.593 27.3725C81.3855 29.7875 82.413 34.3925 84.528 36.035C84.1068 37.7999 83.9326 39.6147 84.0105 41.4275C82.1666 41.6013 80.3697 42.1096 78.708 42.9275C78.2505 37.625 80.628 31.2275 73.848 27.0725C72.738 26.51 67.4955 24.7325 64.0605 26.915C60.3105 28.9775 62.223 34.6925 60.0705 33.845C55.278 33.29 56.8755 38.345 59.5605 41.5925C60.123 42.2675 60.063 43.3925 59.9955 44.6825C57.9776 43.9667 55.8645 43.5547 53.7255 43.46C53.7194 41.2493 53.2653 39.0627 52.3905 37.0325C54.2955 33.8375 52.8405 27.4925 49.0005 26.2775C46.5555 20.675 38.8155 19.1375 34.473 20.75C32.1555 19.43 29.583 18.755 26.973 19.505C27.6638 18.709 28.5287 18.0828 29.5005 17.675C36.183 14.675 34.0455 8.50997 28.0005 8.92247C29.793 3.52247 22.0005 2.84747 19.0005 6.25997C16.1805 -1.76503 4.19551 6.88997 11.1405 12.935C3.15301 13.7075 -0.949487 27.17 9.55051 25.25C8.99551 28.25 11.8005 30.155 14.6805 29.1725C14.4526 29.8295 14.2795 30.5043 14.163 31.19C11.6955 32.3975 10.6305 34.8575 11.2155 37.895C8.77801 40.835 10.1055 45.71 12.7155 48.5C13.5705 49.31 13.263 50.75 13.713 51.77C4.08301 59.6825 -3.97199 66.98 3.21301 77.345C5.68801 81.1925 10.4655 84.6875 12.213 87.725C4.96801 93.3725 25.518 101.502 30.318 87.8975C39.843 90.9425 51.5055 87.245 59.778 83.2325C65.958 78.7925 56.193 70.9175 57.6705 64.9925C63.783 66.9575 70.3455 66.98 76.833 66.215C67.263 84.47 90.738 92.8625 108.063 90.6725C108.708 100.707 125.358 102.545 129.168 93.3725C130.151 90.8825 134.538 92.69 135.498 89.8325C136.998 87.245 133.166 85.19 134.231 83.03C139.908 71.075 134.486 59.09 124.818 48.935C124.945 48.4442 125.021 47.9415 125.043 47.435C129.056 47.15 133.676 44.5025 135.348 40.19C137.771 41.0675 142.158 44.285 142.758 39.8225C143.163 31.775 138.251 24.02 130.323 20.075ZM83.913 28.1525C84.783 28.685 85.713 29.285 86.6955 29.9675C86.0143 31.385 85.4475 32.8546 85.0005 34.3625C84.3519 33.4817 83.9161 32.4626 83.7274 31.3852C83.5387 30.3078 83.6023 29.2012 83.913 28.1525ZM49.638 28.2875C51.4305 29.7875 52.128 32.975 51.5355 35.12C50.7957 33.6902 49.9483 32.3187 49.0005 31.0175C49.303 30.6384 49.5172 30.1967 49.6274 29.7244C49.7377 29.2522 49.7413 28.7613 49.638 28.2875ZM47.658 26.8775C49.413 31.265 46.413 31.325 42.123 29.1275C48.828 30.26 44.7555 22.6925 37.9155 23.51C37.3553 22.8985 36.7457 22.3341 36.093 21.8225C39.933 21.05 45.7755 22.565 47.658 26.8775ZM29.013 20.66C36.618 20.075 45.2955 34.3775 31.968 31.25C43.788 30.185 29.973 18.35 24.948 24.2825C24.5278 24.1281 24.0966 24.0052 23.658 23.915C25.0005 21.8075 26.8155 20.705 29.013 20.66ZM22.188 27.545C20.103 27.29 17.5905 28.655 16.848 30.4475C16.4982 30.476 16.1502 30.5236 15.8055 30.59C19.3755 16.7225 38.688 34.04 24.4305 34.82C29.3655 33.875 28.9005 28.79 22.188 27.545ZM27.8205 10.46C32.6505 9.81497 33.5955 14.0975 29.253 16.1C31.398 8.68247 21.693 13.97 22.578 19.5725C22.1935 19.1486 21.7457 18.7868 21.2505 18.5C21.3255 15.5 23.748 11 27.8205 10.46ZM19.0005 8.42747C23.328 2.74997 31.3905 6.83747 23.1855 11.18C27.288 4.10747 16.6455 8.17997 18.6855 14.975C18.2912 14.6439 17.8725 14.3431 17.433 14.075C17.273 13.0763 17.3301 12.0548 17.6006 11.0802C17.8711 10.1056 18.3486 9.2008 19.0005 8.42747ZM10.788 7.51247C12.003 4.09247 17.8755 3.18497 17.7105 7.65497C17.4337 7.99559 17.183 8.35661 16.9605 8.73497C15.378 1.98497 8.59051 9.08747 14.793 13.01C11.898 12.8525 9.82051 9.41747 10.788 7.51247ZM10.3005 23.09C8.14051 24.59 6.34801 24.3575 5.08801 22.67C2.83801 17.3525 12.3555 11.2775 17.4405 15.92C11.8455 12.845 4.10551 22.5275 10.818 22.295C10.6305 22.5575 10.4505 22.82 10.3005 23.09ZM11.583 27.44C8.78551 22.5425 19.233 15.9125 22.1655 21.5C18.2955 18.5 8.97301 26.5775 16.383 26.24C15.078 28.25 11.7255 27.98 11.583 27.44ZM14.748 32.54C24.8955 28.985 22.6905 41.6525 17.388 38.54C20.568 39.14 22.518 33.8225 17.973 33.41C14.628 33.11 13.638 35.8325 13.368 36.98C13.1199 36.9367 12.8661 36.9367 12.618 36.98C12.3705 34.955 13.113 33.3875 14.748 32.54ZM11.6355 40.1825C13.5705 34.415 20.2305 46.55 23.313 36.29C23.713 36.32 24.088 36.335 24.438 36.335C23.1555 36.7625 22.683 38.84 24.438 38.18C26.8155 36.2225 29.268 35.81 31.7355 36.965C31.8251 37.0066 31.922 37.0301 32.0207 37.0341C32.1194 37.0381 32.2179 37.0226 32.3106 36.9885C32.4033 36.9543 32.4883 36.9022 32.5608 36.8351C32.6333 36.768 32.6918 36.6872 32.733 36.5975C33.0855 35.0975 30.5655 35.0975 29.643 34.85C30.3293 34.2815 30.783 33.4808 30.918 32.6C34.668 33.74 39.7755 33.62 40.3755 29.9075C41.1641 30.3906 41.9862 30.8167 42.8355 31.1825C41.508 31.235 36.4305 33.98 38.973 35.135C43.6155 30.6725 45.0405 33.8 46.308 32.045C46.7694 32.0632 47.2307 32.0049 47.673 31.8725C67.0005 57.38 19.6155 65.18 14.8455 50C14.013 46.4975 10.3455 44 11.6355 40.1825ZM27.1605 90.3275C26.9355 89.3525 26.9955 87.23 25.608 87.5375C25.5168 87.5752 25.4339 87.6306 25.3642 87.7005C25.2944 87.7704 25.2391 87.8533 25.2015 87.9446C25.1639 88.0359 25.1446 88.1337 25.1449 88.2325C25.1451 88.3312 25.1649 88.4289 25.203 88.52C25.5988 89.5442 25.7702 90.6414 25.7055 91.7375C24.5169 92.6751 23.1328 93.3338 21.6555 93.665C21.6555 92.7275 22.4055 89.9975 20.9055 89.7425C20.8063 89.7491 20.7093 89.7754 20.6203 89.8199C20.5313 89.8643 20.4521 89.926 20.3871 90.0014C20.3222 90.0768 20.273 90.1643 20.2422 90.2589C20.2115 90.3536 20.1998 90.4533 20.208 90.5525C20.3055 91.8125 20.3655 93.185 19.983 93.905C17.508 94.5125 10.2855 91.55 12.6255 89.1575C15.138 87.365 12.7605 85.895 10.1505 82.9925C6.17551 79.16 -0.446987 72.1175 2.59051 66.1625C4.63801 63.1625 8.18551 62.3 12.0855 63.86C20.898 68.675 34.1505 81.6275 27.1605 90.3275ZM57.708 63.41C57.948 60.02 56.8155 57.155 54.0105 54.095C53.8753 53.9488 53.6875 53.8623 53.4884 53.8546C53.2894 53.8468 53.0955 53.9185 52.9493 54.0537C52.8031 54.189 52.7166 54.3768 52.7088 54.5758C52.7011 54.7748 52.7728 54.9688 52.908 55.115C56.493 58.7375 56.373 62.1275 56.103 66.365C56.103 70.9625 59.388 74.84 60.258 79.115C61.4355 84.92 34.923 89.4875 30.6405 86.345C31.1505 81.695 29.103 77.9525 25.2405 73.01C26.1105 71.45 30.768 68.4425 30.003 66.7175C28.173 66.2 25.788 70.8275 24.258 71.855C20.448 67.4825 12.0705 59.045 5.02801 62.2325C7.64711 58.7303 10.7917 55.654 14.3505 53.1125C23.448 63.41 51.0555 60.755 53.6355 44.93C55.7679 45.0129 57.8726 45.441 59.868 46.1975C59.493 49.805 58.7355 59.99 61.9605 64.4975C60.453 64.19 58.983 63.8 57.708 63.41ZM67.458 65.135C56.733 65.63 63.2505 45.005 61.0005 41C59.5005 38.84 57.738 36.2975 58.7505 35.3525C59.733 34.9625 61.3905 36.05 62.253 34.6025C63.183 32.2625 62.463 28.4375 66.2355 27.5675C66.663 28.4675 65.388 31.91 66.9255 32.495C68.613 32 67.488 28.25 67.7505 27.3425C68.8835 27.3033 70.0165 27.4194 71.118 27.6875C71.2568 29.0565 71.2568 30.436 71.118 31.805C71.1086 31.909 71.121 32.0138 71.1545 32.1128C71.188 32.2117 71.2417 32.3025 71.3123 32.3795C71.3829 32.4565 71.4688 32.5178 71.5645 32.5597C71.6602 32.6015 71.7636 32.6229 71.868 32.6225C73.368 32.165 72.528 29.315 72.6855 28.1225C77.718 30.155 77.3055 36.0125 77.2305 39.3725C77.103 48.035 78.4305 65.81 67.4505 65.135H67.458ZM132.821 82.385C131.111 84.5675 135.071 87.4925 134.111 89.135C133.736 89.9225 132.483 90.4175 130.676 90.485C126.476 91.115 127.953 96.875 121.046 97.565C121.019 95.8507 121.157 94.1378 121.458 92.45C119.906 88.9775 119.351 95.93 119.553 97.7C117.807 97.7578 116.068 97.4539 114.446 96.8075C114.237 94.9117 114.524 92.9943 115.278 91.2425C115.321 91.1534 115.346 91.0567 115.352 90.9578C115.358 90.859 115.344 90.76 115.311 90.6665C115.278 90.5731 115.227 90.4871 115.161 90.4134C115.095 90.3398 115.015 90.28 114.926 90.2375C112.803 90.1325 112.998 94.8725 112.878 96.02C105.438 91.1525 112.128 81.23 115.226 73.3625C119.111 69.2 126.686 66.38 131.486 67.3175C138.461 68.57 133.623 79.67 132.813 82.4L132.821 82.385ZM134.276 66.8075C128.456 63.8075 119.906 67.0775 114.731 71.75C114.063 70.835 110.523 64.4825 110.553 68.285C111.783 70.0925 112.511 71.0375 113.748 73.01C111.446 78.08 108.498 84.26 108.078 89.105C94.4355 90.9875 79.578 85.6775 76.578 77.8025C74.943 73.415 77.718 65.4125 83.328 58.3475C83.3899 58.2703 83.4359 58.1816 83.4634 58.0866C83.4909 57.9916 83.4993 57.892 83.4881 57.7937C83.4769 57.6955 83.4464 57.6003 83.3984 57.5139C83.3503 57.4274 83.2856 57.3513 83.208 57.29C81.0255 56.9975 78.903 62.675 77.6055 64.4675C76.1813 64.7859 74.7294 64.9643 73.2705 65C79.0155 60.7325 78.2655 51.3875 78.7005 44.5775C80.388 43.6433 82.2537 43.076 84.1755 42.9125C84.738 47.0525 87.7005 49.0025 90.8805 51.065C93.408 56.93 94.878 60.7175 98.4855 60.9725C102.476 60.455 105.986 57.4025 110.868 55.67C115.893 55.13 120.903 54.0575 124.113 50.42C129.168 56 132.581 61.475 134.268 66.8225L134.276 66.8075ZM93.0255 52.2125C97.3993 54.3425 102.167 55.5428 107.028 55.7375C99.0105 59.75 97.0005 62.375 92.988 52.25L93.0255 52.2125ZM124.646 44.285C122.606 46.295 124.496 49.8425 120.933 51.215C110.921 57.68 83.3655 53.855 85.683 38.2775C86.433 32.6525 90.003 25.1 95.4855 22.16C97.0755 24.155 98.4855 26.66 100.571 27.935C100.99 28.1361 101.458 28.2174 101.921 28.1697C102.384 28.1221 102.825 27.9474 103.196 27.665C104.133 27.0575 107.463 23.465 108.318 23.915C109.391 26.24 110.223 28.895 111.626 31.01C110.816 31.01 108.318 30.065 108.041 31.5275C108.041 31.7264 108.12 31.9172 108.26 32.0578C108.401 32.1985 108.592 32.2775 108.791 32.2775C111.851 32.225 113.118 33.0275 114.978 33.74C116.733 33.26 115.016 31.9025 114.011 31.715C115.241 31.13 116.178 29.945 117.258 29.195C121.811 31.85 119.801 45.125 127.158 36.695C127.517 38.0733 127.467 39.5264 127.015 40.8769C126.562 42.2274 125.726 43.4168 124.608 44.3L124.646 44.285ZM125.268 45.845C127.316 43.9025 128.823 41.7275 128.891 38.9225C130.595 38.9387 132.288 39.1911 133.923 39.6725C132.461 43.25 128.643 45.5 125.231 45.86L125.268 45.845ZM141.251 39.695C140.786 42.2675 136.833 38.525 135.161 38.4875C133.128 37.8 130.999 37.4429 128.853 37.43C127.968 31.49 123.866 39.185 122.973 37.7225C122.546 36.7175 120.221 25.6325 116.081 28.1675C115.166 28.73 113.831 30.7925 112.893 30.2C107.846 20.75 110.756 20.255 101.418 26.75C99.0705 25.58 98.133 22.25 95.973 20.75C92.0955 21.065 89.4255 25.5125 87.4005 28.6325C83.943 25.2275 72.633 23.3825 78.513 17.84C80.403 16.0625 83.5905 14.165 87.093 14.3675C87.4021 14.424 87.7211 14.382 88.0051 14.2474C88.289 14.1128 88.5235 13.8925 88.6755 13.6175C89.028 11.0075 84.1755 9.72497 83.778 7.47497C87.4005 3.60497 97.068 4.99997 101.861 9.81497C101.441 11.18 99.2805 13.4825 100.623 14.6225C100.717 14.6542 100.815 14.6672 100.914 14.6606C101.013 14.6541 101.109 14.6281 101.197 14.5842C101.286 14.5403 101.365 14.4793 101.43 14.4048C101.495 14.3303 101.544 14.2437 101.576 14.15C104.456 7.08497 110.433 -1.18753 114.551 2.82497C118.008 5.77997 122.051 12.8075 122.411 18.1625C122.411 18.3614 122.49 18.5522 122.63 18.6928C122.771 18.8335 122.962 18.9125 123.161 18.9125C125.133 17.9225 122.718 13.415 122.141 11.4125C129.506 10.265 134.313 10.8125 134.748 12.9125C134.711 14.6525 130.428 17.5025 129.116 19.265C128.979 19.4293 128.881 19.6225 128.83 19.83C128.778 20.0375 128.774 20.2539 128.818 20.4631C128.862 20.6723 128.953 20.8689 129.084 21.038C129.214 21.2072 129.382 21.3446 129.573 21.44C138.656 25.8725 141.543 33.7925 141.251 39.695Z" fill="black"/>
<path d="M93.4014 27.6652C97.1514 26.9602 97.699 30.0052 99.169 29.3077C99.919 26.9302 95.644 25.9552 93.289 26.1727C93.1005 26.1995 92.9293 26.2969 92.81 26.4453C92.6907 26.5936 92.6323 26.7818 92.6467 26.9716C92.661 27.1614 92.7469 27.3386 92.8871 27.4674C93.0272 27.5962 93.2111 27.6669 93.4014 27.6652Z" fill="black"/>
<path d="M27.6395 47.7877C34.532 47.7427 33.722 37.7302 27.0995 38.6977C21.332 39.3502 22.1945 47.8177 27.6395 47.7877ZM28.3895 40.1602C32.8895 40.9627 30.9845 47.5852 26.552 46.0852C27.6176 44.2803 28.2469 42.2513 28.3895 40.1602Z" fill="black"/>
<path d="M44.7988 43.5501C51.5488 43.5501 50.9638 33.7551 44.4613 34.7151C39.1213 35.3901 39.4588 43.5801 44.7988 43.5501ZM45.5488 36.1476C49.8838 36.6951 48.4138 43.0401 44.0038 41.9301C44.8619 40.112 45.3804 38.1523 45.5338 36.1476H45.5488Z" fill="black"/>
<path d="M34.5326 46.1523C33.8651 46.8573 34.9901 47.8923 35.6426 47.1648C36.1235 46.6469 36.7857 46.3345 37.4912 46.2926C38.1967 46.2507 38.8912 46.4825 39.4301 46.9398C39.5032 47.0067 39.5889 47.0585 39.6822 47.0922C39.7755 47.1258 39.8745 47.1406 39.9736 47.1358C40.0726 47.1309 40.1697 47.1064 40.2592 47.0637C40.3487 47.0211 40.4289 46.9611 40.4951 46.8873C41.0951 44.0448 35.5001 44.4948 34.5326 46.1523Z" fill="black"/>
<path d="M34.6459 43.5502C35.9959 43.3927 34.9084 41.7202 35.7784 40.9252C36.8809 39.7252 39.0409 40.9777 38.3959 42.4702C38.3472 42.6631 38.3771 42.8675 38.479 43.0384C38.581 43.2093 38.7467 43.3327 38.9396 43.3814C39.1326 43.4302 39.337 43.4003 39.5079 43.2983C39.6788 43.1963 39.8022 43.0306 39.8509 42.8377C40.9084 39.6952 36.6259 37.5877 34.6009 39.9727C34.0009 40.7452 33.1459 43.2502 34.6459 43.5502Z" fill="black"/>
<path d="M36.7525 53.1199C39.37 53.1874 39.1675 50.4648 40.195 48.9424C40.765 48.5598 41.2 48.1024 40.8625 47.7499C39.0025 47.6674 36.3625 48.8224 33.8425 48.1249C33.0925 47.9899 32.8225 48.3574 32.845 48.8749C32.935 50.6299 34.645 53.1199 36.7525 53.1199ZM35.2525 49.0924C35.8 49.0924 36.7525 49.0924 37.8325 49.0024C39.46 49.1449 37.42 51.3874 36.52 51.0649C35.23 51.1174 34.3075 49.4974 35.23 49.0924H35.2525Z" fill="black"/>
</svg>
