<svg width="144" height="130" viewBox="0 0 144 130" fill="none" xmlns="http://www.w3.org/2000/svg">
<path d="M127.42 101.28C127.638 100.478 126.31 95.6475 126.618 94.995C126.925 94.3425 131.425 95.37 132.025 96.0975C132.453 96.615 133.525 100.043 134.365 103.11C140.283 94.1925 139.848 81.1875 133.78 71.9775C133.855 79.065 129.543 73.4775 126.91 72.6375C125.534 73.0343 124.19 73.536 122.89 74.1375C122.305 77.2125 121.06 79.3875 117.408 77.6475C117.408 77.6475 115.36 81.525 116.823 82.035C118.285 82.545 123.108 83.79 123.258 84.885C122.598 91.3875 119.508 85.395 115.945 85.32C109.66 87.15 108.055 89.49 111.048 94.8975C111.633 95.2575 114.633 96.21 115.143 96.87C116.973 100.665 114.265 100.958 112.51 103.448C112.218 104.198 112.953 108.563 113.463 108.93C113.973 109.298 116.095 108.413 117.7 108.12C122.38 107.903 120.475 105.788 122.598 103.298C123.55 102.818 127.203 102.09 127.42 101.28Z" fill="#007C52"/>
<path d="M106.375 103.695C105.572 103.695 103.232 104.205 102.43 105.158C98.335 110.055 101.11 110.123 105.715 110.49C106.667 110.198 109.367 107.423 109.367 106.74C109.367 106.058 107.177 103.695 106.375 103.695Z" fill="#007C52"/>
<path d="M88.0312 75.6975C88.1812 79.4475 91.1738 81.03 92.0512 83.52C92.2688 86.22 88.4737 90.27 88.3987 91.845C88.3237 93.42 90.8063 94.6275 91.2488 96.015C91.5413 97.035 90.7388 103.177 91.9988 104.707C92.7488 105.66 96.6787 99.3 97.5562 99.3C101.209 100.177 102.889 98.715 104.569 95.7225C104.786 95.0625 101.501 93.09 100.916 92.1375C100.481 91.335 100.549 86.5875 99.7462 85.71C98.7937 84.615 95.8837 84.315 95.3662 83.6625C95.0062 83.22 94.2637 77.3025 96.0187 76.1625C97.1137 75.4125 100.039 76.68 101.066 76.455C102.094 76.23 103.841 73.3875 104.719 73.17C110.126 76.455 108.664 77.775 111.514 70.4625C111.806 64.4024 109.264 68.2125 106.031 66.5925C105.521 65.9325 109.174 62.4298 110.531 60.6748C100.016 61.0873 92.2837 67.74 88.0312 75.6975Z" fill="#007C52"/>
<path d="M115.88 69.345C117.335 70.44 122.75 68.8575 123.988 68.835C126.185 68.7975 129.688 71.685 131.368 68.91C127.205 64.0124 119.675 61.2374 113.608 60.7949C112.37 62.7674 113.833 63.4274 115.003 65.1825C115.363 65.8425 114.71 68.4675 115.88 69.345Z" fill="#007C52"/>
<path d="M9.61897 35.0701C13.054 32.4451 16.0465 36.0226 19.0465 34.9276C23.4265 33.4276 18.9715 25.5001 29.7865 21.4276C28.399 23.7676 31.324 30.6376 47.254 24.0601C46.4515 32.9776 54.709 33.3376 64.939 28.8826C64.354 31.3651 64.864 35.3176 72.319 35.9026C77.1595 33.8967 82.5182 33.5099 87.5965 34.8001C87.5965 34.8001 87.5965 20.9926 74.8015 21.4276C73.054 13.7551 65.0515 7.54515 53.7565 12.0001C48.424 4.83765 35.854 4.62015 33.2215 12.1501C23.4265 12.2926 18.604 15.5101 17.074 22.9651C0.116451 24.8626 -0.101049 43.5001 9.10897 53.6551C6.03397 49.2526 5.52397 38.2876 9.61897 35.0701Z" fill="#007C52"/>
<path d="M126.11 128.325C123.478 127.815 119.825 127.373 116.24 126.863C113.683 126.42 114.56 122.843 113.908 122.108C112.955 121.013 111.275 120.945 110.765 121.748C109.955 122.985 110.105 125.985 108.425 126.863C107.548 127.238 90.9355 128.76 96.733 129.638C98.4055 129.893 137.653 130.448 126.11 128.325Z" fill="black"/>
<path d="M47.7655 63.1344C37.9705 61.3044 37.5355 58.1619 36.7855 55.8294C36.7453 55.7248 36.6794 55.6319 36.5938 55.5594C36.5082 55.487 36.4058 55.4373 36.2959 55.4148C36.186 55.3924 36.0723 55.398 35.9652 55.4312C35.8581 55.4643 35.761 55.5239 35.683 55.6044C31.0105 61.0869 36.358 70.8295 42.8455 64.6719C43.0222 64.4914 43.2444 64.362 43.4887 64.2972C43.7329 64.2326 43.9901 64.2351 44.233 64.3044C47.8405 65.107 49.813 63.5019 47.7655 63.1344Z" fill="black"/>
<path d="M141.313 76.8747C138.388 68.6923 133.063 62.4747 125.893 59.2647C126.47 57.5772 128.743 54.7647 127.13 54.2172C126.095 53.6997 124.925 57.0297 124.13 58.6047C120.763 57.3597 119.015 55.8972 118.723 57.8547C118.648 58.7322 120.11 58.6647 123.223 60.1947L122.345 61.9497C115.183 59.2497 108.845 59.3172 103.415 61.0722C104.923 56.1581 104.618 50.8659 102.553 46.1585C100.488 41.4511 96.8018 37.6413 92.1653 35.4222C93.4778 28.0422 86.9153 16.1997 78.3503 16.7847C76.5202 7.03467 63.8829 3.04467 54.8904 6.41217C49.7004 -1.33533 35.0154 -1.62783 29.9004 6.47967C22.1529 4.65717 12.2079 9.18717 12.1404 17.8122C-3.4971 21.5622 -1.0146 42.0747 7.5354 53.1072C4.6104 54.7872 -0.579598 57.2022 2.7129 57.7872C3.4629 57.9297 5.9304 55.8147 8.7804 54.6447C17.1804 67.3573 37.9329 78.8322 58.1829 77.2947C59.172 78.758 60.3217 80.1065 61.6104 81.3148C61.3179 81.8997 60.8079 82.6348 60.3729 83.4372C59.1279 76.4922 50.1429 78.1048 45.9054 82.7773C41.4713 81.6575 37.1618 80.0922 33.0429 78.1048C31.5054 77.2272 31.4304 79.1247 32.8929 80.0023C35.3754 81.5023 41.0754 83.2872 44.5104 84.3148C38.3754 90.5997 33.6954 110.692 35.5104 118.515C19.3554 112.012 12.5604 110.692 9.2604 102.367C8.5104 100.537 7.4304 100.462 7.5054 101.197C7.7979 105.217 10.9404 109.89 15.9804 112.305C22.3404 115.372 30.3054 118.515 37.7304 121.305C45.1554 124.095 51.3204 125.542 57.0954 125.805C67.1079 126.322 73.5952 124.86 77.5553 107.902C79.8952 97.7473 75.5152 93.8022 69.8154 91.6797C70.4235 90.2113 71.1667 88.8027 72.0352 87.4722C76.041 88.6895 80.322 88.6633 84.3128 87.3973C83.4352 97.6273 88.4827 107.647 98.2702 113.265C98.0527 113.782 97.7602 114.217 97.5202 114.66C96.1822 114.023 94.95 113.183 93.8678 112.17C93.78 112.081 93.6743 112.011 93.558 111.965C93.441 111.92 93.3158 111.9 93.1905 111.907C93.066 111.914 92.9437 111.948 92.8327 112.006C92.7217 112.065 92.625 112.146 92.5478 112.245C91.8953 113.415 95.1053 115.537 96.5677 116.265C95.4728 118.312 94.0853 120.765 95.8177 120.577C96.4703 120.502 96.9128 119.19 98.2253 116.992C124.355 128.76 150.785 103.185 141.313 76.8747ZM13.1979 19.5822C15.3204 19.1397 12.9804 14.0997 17.5104 10.8822C19.2885 9.55895 21.3425 8.65445 23.5191 8.23632C25.6957 7.81812 27.9386 7.89702 30.0804 8.46717C30.2745 8.50797 30.4765 8.4881 30.6589 8.41032C30.8414 8.33247 30.9955 8.20047 31.1004 8.03217C35.9379 0.142174 49.0104 0.532174 53.7579 8.03217C53.8832 8.216 54.0669 8.3522 54.2792 8.41887C54.4914 8.48555 54.7199 8.4788 54.9279 8.39967C57.5896 7.41822 60.4343 7.03377 63.261 7.27355C66.0877 7.51332 68.8271 8.3714 71.2854 9.78717C77.2253 13.3872 75.4778 18.4797 78.3727 18.4797C85.6777 18.6297 91.3777 27.9822 90.5003 34.7097C84.8303 32.7124 78.6525 32.686 72.9653 34.6347C69.4554 35.4372 64.5579 33.6072 65.7279 29.2272C65.9454 28.4772 65.8029 27.4722 64.4154 28.1322C56.3004 31.8822 47.0229 33.3822 48.0429 24.3297C48.0683 24.1623 48.0485 23.991 47.9858 23.8338C47.9229 23.6766 47.8193 23.5389 47.6856 23.435C47.5519 23.3311 47.393 23.2647 47.225 23.2427C47.0571 23.2206 46.8864 23.2437 46.7304 23.3097C38.8329 26.8872 31.1604 27.8097 30.4329 22.4997C30.0654 19.8747 24.5154 21.5547 22.0254 26.9997C20.5254 30.3672 20.1279 35.1897 17.6454 34.2372C12.9654 32.4822 10.6629 32.5947 8.1429 35.1147C5.6229 37.6347 5.0754 42.1347 5.8929 46.9572C0.920401 36.8997 0.785402 22.1397 13.1979 19.5822ZM11.4429 55.1697C6.6954 48.5172 4.9404 37.1172 11.8104 34.9197C14.4429 34.1172 15.9054 35.7222 18.1704 36.0897C23.7204 36.9672 20.6529 25.7847 28.4754 22.9347C29.9754 29.1447 36.8754 28.9347 46.0104 25.4922C46.7604 34.7022 55.0779 33.7422 63.6279 30.3897C63.5529 33.3072 66.1854 35.5797 68.9604 36.3072C63.5529 39.1572 59.0229 44.5572 56.3904 50.4822C55.8804 48.2322 52.4454 46.6872 51.7104 47.9247C51.6552 48.0384 51.6269 48.1633 51.6277 48.2897C51.6284 48.4161 51.6582 48.5407 51.7148 48.6538C51.7713 48.7668 51.8531 48.8654 51.9537 48.9418C52.0544 49.0183 52.1713 49.0706 52.2954 49.0947C59.6754 52.0197 52.0779 60.8622 47.1054 55.0122C46.1604 53.9172 44.9904 55.0872 45.7929 56.2572C46.6612 57.5519 47.9842 58.4732 49.4996 58.8385C51.0151 59.2038 52.6126 58.9866 53.9754 58.2297C52.9814 64.1623 54.0676 70.256 57.0504 75.4798C37.9704 76.5072 19.1904 66.0597 11.4429 55.1697ZM61.2129 78.1198C45.2829 57.2847 69.1029 28.3497 90.5903 36.5322C95.4878 38.3622 98.9978 41.4297 101.48 47.1297C83.7953 20.0922 46.8879 53.1972 61.2129 78.1198ZM82.9177 46.7622C79.0478 51.3672 74.3678 60.1422 71.2254 66.3522C67.4229 64.5972 64.8654 62.1822 63.9204 59.4822C65.4075 53.9448 68.7617 49.0911 73.4153 45.7422C76.6162 45.5907 79.8217 45.9348 82.9177 46.7622ZM76.1227 105.375C72.8018 105.19 69.5379 104.429 66.4779 103.125C64.6479 102.465 64.3554 104.37 67.1304 105.247C69.9536 106.202 72.87 106.856 75.8303 107.197C75.2572 109.884 74.475 112.522 73.4902 115.087C70.6052 114.614 67.7687 113.881 65.0154 112.897C63.0429 112.312 63.1104 114.067 65.8179 115.087C68.0591 115.944 70.4006 116.511 72.7852 116.775C67.9554 129.637 45.0354 121.597 37.6329 119.19C35.8779 113.632 38.8029 94.1922 46.0329 85.4398C49.4679 81.2773 53.6379 79.5222 57.2829 81.4197C60.0579 82.8073 56.7204 89.6697 60.7929 90.8472C68.3454 93.0222 77.8027 93.9747 76.1227 105.375ZM68.9604 89.0023C66.3244 88.0175 63.8401 86.6667 61.5804 84.9897C62.0904 84.1797 62.6004 83.3773 62.9679 82.6497C65.087 84.4152 67.4813 85.8215 70.0554 86.8122C69.7854 87.4722 69.3954 88.1998 68.9604 89.0023ZM63.2604 62.3322C67.7604 68.9098 79.4827 72.2697 86.9378 69.4197C93.3652 67.0047 94.5352 55.6047 92.1878 50.9322C89.8402 46.2597 82.3928 44.1822 76.4378 43.8447C91.3402 36.3447 103.985 49.2522 96.8978 64.2297C90.7553 68.6923 86.8102 73.8747 84.9877 81.4048C72.9802 87.8398 60.4104 76.3648 63.2604 62.3322ZM87.3727 98.1373C76.7077 65.8873 122.945 44.7972 136.123 78.7722C148.183 109.875 101.113 130.665 87.3727 98.1373ZM99.1402 115.312C99.3577 114.877 99.6502 114.435 99.8902 113.925C116.038 120.067 130.438 112.245 136.723 100.185C141.973 90.0297 140.158 71.0247 124.22 62.6247C124.513 62.0397 124.805 61.4547 125.098 60.9447C140.158 67.0048 145.783 89.9548 137.6 103.26C128.593 118.605 111.568 120.285 99.1402 115.312Z" fill="black"/>
<path d="M40.3105 48.4422C54.343 46.9422 48.793 25.7923 31.7605 29.2273C26.2105 30.3223 22.5355 38.3623 25.6255 42.8173C27.3055 45.1572 29.863 44.7223 32.3755 45.5247C35.7805 46.6198 36.8755 48.8097 40.3105 48.4422ZM30.298 43.1923C25.918 42.5323 25.333 38.5123 27.2305 35.0773C29.5705 30.9898 34.243 29.1598 41.113 32.0773C38.0097 35.7037 35.2244 39.5905 32.788 43.6948C31.9105 43.4473 31.1005 43.3273 30.298 43.1848V43.1923Z" fill="black"/>
</svg>
