<svg width="136" height="144" viewBox="0 0 136 144" fill="none" xmlns="http://www.w3.org/2000/svg">
<path d="M127.476 119.59C122.804 120.175 111.179 124.345 108.329 126.1C105.479 127.855 105.771 131.065 109.934 131.14C114.831 131.215 127.986 126.64 130.551 123.977C132.666 121.855 131.864 119.012 127.476 119.59Z" fill="#007C52"/>
<path d="M24.4204 113.672C13.9654 122.222 18.7879 139.84 33.1879 139.622C46.4179 140.207 52.7779 124.42 44.5204 114.985C41.9574 112.264 38.4585 110.616 34.7287 110.372C30.9989 110.129 27.3154 111.308 24.4204 113.672ZM42.1054 135.422C38.0104 138.64 29.1679 139.885 23.4679 134.252C16.0129 126.002 22.5154 111.67 33.9679 111.887C46.9279 112.06 50.7304 128.582 42.1054 135.452V135.422Z" fill="#007C52"/>
<path d="M38.7472 115.57C37.1347 115.937 34.1422 126.902 32.7472 126.977C29.1622 127.12 24.8497 119.882 23.6047 126.902C23.3122 128.29 32.1622 133.915 34.6447 133.915C37.1272 133.915 43.8997 118.952 43.1947 117.617C42.7222 116.891 42.0538 116.313 41.2667 115.951C40.4797 115.588 39.6062 115.456 38.7472 115.57Z" fill="#007C52"/>
<path d="M73.9708 68.7175C72.9508 69.2275 70.6858 78.2202 69.7333 78.5127C68.4208 78.6627 66.4409 76.4952 65.0534 76.3977C64.2509 76.3377 63.6659 77.6352 63.7409 78.9552C63.8159 79.9752 69.3583 83.2977 71.4133 82.9002C73.0933 82.5777 77.6308 70.5476 77.0458 69.6701C76.7023 69.2041 76.2178 68.8603 75.665 68.689C75.1115 68.5177 74.5183 68.5276 73.9708 68.7175Z" fill="#007C52"/>
<path d="M63.9605 59.5075C62.2805 59.5825 58.553 55.1951 58.043 59.8001C58.118 60.8276 63.5255 63.9701 65.1305 63.7451C67.103 63.4526 71.4903 51.5426 70.9053 50.6651C70.3203 49.7876 69.0903 49.0675 68.3478 49.7125C67.4855 50.4625 64.913 59.215 63.9605 59.5075Z" fill="#007C52"/>
<path d="M59.2816 44.6723C61.3366 44.4248 65.9341 32.4623 65.3491 31.5848C64.7641 30.7073 62.7166 30.5648 61.6966 31.3673C60.8191 32.1173 58.8541 40.2322 57.8941 40.4347C56.2966 40.7647 51.9766 36.1898 51.9766 40.6523C51.9766 41.6048 57.7516 44.8523 59.2816 44.6723Z" fill="#007C52"/>
<path d="M108.18 82.6075C106.425 82.825 101.82 77.5975 100.365 77.635C98.9097 77.6725 97.4398 79.885 97.2223 82.135C97.0048 84.385 106.972 93.0325 110.722 92.4475C114.675 91.8625 123.15 70.3673 122.497 68.1773C121.845 65.9873 118.62 64.9598 116.94 65.8373C114.69 67.0373 109.935 82.39 108.18 82.6075Z" fill="#007C52"/>
<path d="M112.493 94.0071C106.995 97.3071 96.3825 95.3871 94.1475 88.3821C93.246 86.2439 92.9708 83.8941 93.3533 81.6059C93.7358 79.3176 94.7595 77.1854 96.3068 75.4566C97.854 73.7271 99.861 72.4739 102.093 71.8409C104.325 71.2082 106.691 71.2224 108.915 71.882C110.963 72.4671 111.03 70.937 109.35 70.4945C96.8475 66.9995 86.265 80.9946 94.515 91.9821C96.93 95.1996 101.895 96.9546 105.33 97.0296C113.723 97.2621 115.41 92.2596 112.493 94.0071Z" fill="#007C52"/>
<path d="M64.4719 134.943C62.8669 134.5 56.0719 138.01 56.5819 139.84C57.0169 141.34 63.6994 140.32 65.3494 139.255C65.7202 138.98 66.0047 138.604 66.1698 138.173C66.3349 137.741 66.3736 137.272 66.2815 136.82C66.1895 136.367 65.9704 135.95 65.6499 135.617C65.3294 135.285 64.9208 135.051 64.4719 134.943Z" fill="#007C52"/>
<path d="M49.2651 38.9719C52.4751 50.1319 51.3726 50.2668 64.4676 46.1343C68.0525 44.9643 67.1751 42.2569 66.4401 39.6994C66.0801 38.1994 64.5426 37.8019 64.8351 39.4069C65.2776 41.5294 66.3726 44.0119 63.9576 44.7469C55.7076 47.3194 53.5701 48.4968 52.4076 44.8143C49.2051 34.4043 49.3176 36.2868 58.9851 32.9043C60.2301 32.4618 58.9176 31.4044 57.8151 31.8094C55.4826 32.5594 53.8701 33.1218 51.7551 33.8493C49.6401 34.5768 48.4626 36.4144 49.2651 38.9719Z" fill="black"/>
<path d="M70.9794 34.1421C73.7544 33.2646 92.8344 28.6596 94.2969 28.2246C95.7594 27.7896 96.7794 26.2521 93.9294 26.8371C91.6794 27.2721 75.1794 30.7072 70.7619 32.6122C69.7344 33.0472 69.5919 34.5846 70.9794 34.1421Z" fill="black"/>
<path d="M59.7234 65.7617C58.3359 65.6192 57.3834 62.1092 56.2884 57.9467C55.1109 53.3717 57.9159 54.1967 64.9884 51.9467C66.3759 51.5117 65.3484 50.4842 63.3009 51.0017C56.5059 52.6817 53.5059 53.0492 54.9009 58.2392C56.8734 65.4017 57.4584 67.7417 60.8184 67.4492C63.8429 67.113 66.8134 66.4 69.6608 65.3268C73.9058 63.9393 72.7358 60.9392 71.8583 57.6542C71.3408 55.7492 70.0658 56.8518 70.4708 58.4568C70.8758 60.0618 71.9258 62.7693 69.3683 63.6468C67.0434 64.4793 62.2809 66.0842 59.7234 65.7617Z" fill="black"/>
<path d="M84.9379 36.3401C92.6179 34.6601 93.1879 34.2176 93.2704 33.4901C93.3379 32.9726 92.6854 32.9051 92.0329 33.0476C91.3804 33.1901 86.1829 34.3676 84.7954 34.9526C83.4079 35.5376 84.0604 36.5576 84.9379 36.3401Z" fill="black"/>
<path d="M65.542 118.352C68.9843 120.932 93.4868 114.212 97.7018 113.162C105.434 111.287 114.907 109.577 120.727 105.662C124.994 102.857 129.524 97.2697 131.834 92.6497C134.294 88.5547 133.822 85.3298 132.494 80.8073C128.249 66.4072 121.897 41.9196 116.482 24.8946C115.312 21.0171 114.292 17.7321 113.707 15.6096C112.537 11.6646 110.707 10.9297 108.374 11.1472C106.619 6.25718 101.624 6.2571 97.3343 6.9846C85.3343 9.0696 77.6168 10.9072 75.1868 9.54218C74.8943 9.32468 74.8193 8.95718 74.8193 8.04218C74.8553 6.70335 74.5118 5.3817 73.8286 4.2298C73.1453 3.07787 72.1508 2.14255 70.9591 1.53174C69.7673 0.920928 68.4271 0.659538 67.0927 0.777708C65.7587 0.895878 64.4853 1.38881 63.4194 2.19962C62.4532 2.0148 61.4607 2.0148 60.4945 2.19962C56.0395 3.29462 55.3795 7.60718 56.9845 10.6747C57.5695 11.7697 57.1345 12.0622 55.8145 12.6472C55.3045 12.8722 52.6044 14.2596 51.7944 15.5721C21.6819 22.2246 30.8395 24.9321 41.122 62.5746C42.817 68.7546 51.7945 97.9522 53.122 102.7C55.1695 108.332 55.7544 115.93 59.6244 116.665C60.6594 118.84 63.232 119.132 65.542 118.352ZM118.094 105.122C121.237 100.735 123.014 95.0947 123.577 88.3073C123.637 87.5573 123.502 86.5522 124.379 86.6273C126.866 87.012 129.281 87.771 131.542 88.8773C130.544 92.7622 125.287 100.772 118.124 105.122H118.094ZM106.687 11.3721C104.557 11.7996 95.7668 13.2472 89.5868 14.5147C89.2283 13.9398 88.7858 13.4216 88.2743 12.9771C101.782 10.0596 105.637 9.5121 106.717 11.3421L106.687 11.3721ZM66.4119 2.7471C67.2145 2.55711 68.0498 2.55511 68.8538 2.74115C69.6571 2.92719 70.4063 3.29625 71.0438 3.81964C71.6813 4.34303 72.1891 5.00655 72.5281 5.75843C72.8671 6.51038 73.0276 7.33043 72.9968 8.1546C72.9218 11.2971 75.4793 11.9571 78.5468 11.7321C82.2968 11.7321 89.6618 13.4871 88.5593 18.3171C88.1993 20.0646 71.8268 23.0646 65.1745 24.5271C58.6645 25.9146 56.9844 26.2821 56.3319 24.8946C54.1344 20.0646 58.0119 16.7046 60.7869 15.7521C63.4194 14.8821 65.0994 12.7522 63.5619 10.2022C62.0244 7.65218 62.3545 3.81207 66.442 2.71707L66.4119 2.7471ZM59.1069 12.3921C59.6919 10.6371 58.357 9.6921 58.087 8.0046C57.7195 5.8896 59.587 3.84209 61.882 3.76709C60.4945 5.8896 60.7869 8.8146 61.9569 10.9296C62.8344 12.4671 62.2495 12.9021 61.0795 13.5621C59.182 13.9296 56.917 14.4396 55.2295 14.7321C56.5795 14.1921 58.552 13.6072 59.137 12.3622L59.1069 12.3921ZM73.0643 24.7447C85.3268 22.3297 91.9418 21.4822 90.3143 16.1947C95.6543 15.0997 104.204 13.6371 105.742 13.4196C109.394 12.8346 110.932 12.3171 111.952 16.2696C114.367 24.5196 119.264 40.0971 121.162 47.2596C129.944 79.9523 131.759 83.3047 131.759 86.9498C129.676 86.0587 127.493 85.422 125.257 85.0522C122.549 84.5348 121.672 85.7048 121.604 89.8747C119.849 89.6572 118.019 89.2897 118.169 91.3747C118.387 94.9597 117.292 103.375 111.659 108.04C110.073 108.494 108.464 108.862 106.837 109.142C94.0868 111.55 79.2818 117.032 66.9294 117.25C66.1794 117.25 66.532 116.995 61.8145 102.047C55.3795 80.4173 46.8145 54.9771 41.6395 33.1971C39.8845 25.8846 46.537 25.3747 53.917 23.6947C55.042 29.8747 59.407 27.4146 73.0943 24.7146L73.0643 24.7447ZM37.0645 31.1047C35.6995 24.4747 38.197 23.2447 54.3145 19.4797C54.0385 20.1835 53.8667 20.9237 53.8044 21.6771C45.6894 24.0846 38.302 23.9271 40.057 33.2946C41.812 42.6621 64.3644 116.695 64.4019 116.77C63.4494 116.987 62.152 117.062 61.552 116.402C54.5695 90.3848 40.042 45.6246 37.042 31.0746L37.0645 31.1047Z" fill="black"/>
<path d="M131.203 119.815C130.693 116.065 126.748 114.692 120.238 115.135C113.953 115.645 95.4883 119.635 93.7108 120.175C93.2383 120.383 92.8138 120.685 92.4613 121.063C92.1095 121.441 91.838 121.886 91.6633 122.372C83.9908 124.127 63.0059 129.535 59.2109 136.84C60.4431 136.084 61.7696 135.493 63.1559 135.085C71.1883 128.755 93.3133 123.61 94.6558 123.61C99.2383 123.017 101.721 131.432 97.7308 133.99C95.9758 135.085 74.7808 139.69 64.3259 139.69C62.9756 140.134 61.5746 140.407 60.1559 140.5C64.5359 143.702 90.2833 138.205 96.9958 136.112C97.5088 136.315 98.057 136.414 98.6083 136.405C100.288 136.405 106.791 134.282 109.423 133.187C113.376 137.14 131.578 128.41 133.911 125.687C136.101 122.957 135.223 119.815 131.203 119.815ZM108.471 131.65C105.684 132.761 102.828 133.69 99.9208 134.432C103.363 130.495 100.986 121.682 94.9483 121.682C99.7483 120.737 128.196 112.427 129.448 119.927C124.791 121.345 107.451 126.46 108.471 131.65ZM132.373 124.78C129.523 127.195 121.993 130.187 117.096 131.65C115.048 132.31 112.198 132.82 110.668 131.8C106.716 129.167 128.571 121.562 131.278 121.562C133.986 121.562 133.986 123.392 132.373 124.78Z" fill="black"/>
<path d="M77.9923 57.512C79.3798 57.332 95.5348 52.5395 96.6373 52.262C97.5073 51.9695 97.5823 51.0244 96.7048 51.0244C94.8823 51.0244 90.6373 52.7045 84.9373 54.167C82.8223 54.677 79.0198 55.4794 77.7748 56.0644C76.5298 56.6494 76.5973 57.722 77.9923 57.512Z" fill="black"/>
<path d="M67.9045 10.1723C71.7818 10.2473 71.1968 3.95488 67.3944 5.05741C66.7746 5.19286 66.2261 5.55129 65.8533 6.06466C65.4804 6.57804 65.3092 7.21051 65.3721 7.84186C65.4351 8.47321 65.7278 9.05949 66.1947 9.48916C66.6615 9.91884 67.2701 10.1619 67.9045 10.1723ZM68.1968 6.36991C69.3668 6.36991 69.5168 8.34241 68.3468 8.61991C66.5169 9.13741 66.1569 6.36991 68.1968 6.36991Z" fill="black"/>
<path d="M77.7746 77.342C77.1146 75.662 76.1696 76.172 76.3871 76.9745C77.1971 79.817 78.2171 82.2245 75.3671 82.8995C72.8029 83.8557 70.1606 84.5885 67.4697 85.0895C64.5147 85.7045 63.8622 84.2945 61.9872 76.322C61.5222 73.652 62.4297 73.502 70.1021 71.2068C71.4146 70.8393 71.5646 70.4569 71.2721 70.1794C70.2671 69.2119 65.2047 71.1318 63.2322 71.9343C61.2597 72.737 60.0147 73.5395 60.5247 76.4345C60.9604 78.8997 61.6207 81.3192 62.4972 83.6645C63.9972 87.3695 65.3397 87.7595 75.7271 84.2495C78.9971 83.1095 78.9821 80.5595 77.7746 77.342Z" fill="black"/>
<path d="M80.7727 36.707C79.9627 35.897 78.2827 36.557 71.7727 38.4545C70.6027 38.822 71.0227 39.8494 71.9902 39.8494C72.9577 39.8494 76.7977 38.4545 79.8877 37.652C80.8402 37.412 80.9902 36.9245 80.7727 36.707Z" fill="black"/>
<path d="M40.4991 105.85C36.0799 103.302 30.9032 102.396 25.8816 103.293C24.0672 102.166 22.0101 101.49 19.8816 101.32C19.6512 99.8134 19.0311 98.3929 18.0825 97.1997C17.134 96.0064 15.8901 95.0817 14.4741 94.5177C5.55657 90.5727 -2.40845 99.1977 1.53657 107.53C3.14907 110.965 6.03657 113.088 9.28407 113.088C9.51297 114.12 9.90807 115.107 10.4541 116.013C9.14157 122.223 9.80157 127.855 12.7941 131.875C19.2291 140.568 25.6566 143.2 32.4591 143.2C54.7566 143.2 58.5366 115.42 40.4991 105.85ZM9.06657 111.258C2.63157 110.823 0.021584 101.853 4.61157 97.3752C8.63907 93.4377 17.3616 95.8377 18.0591 101.395C12.8691 102.048 8.99157 106.263 9.06657 111.258ZM23.1741 103.953C17.9241 105.453 13.3791 108.775 11.3316 113.598C9.29157 106.36 16.3791 101.073 23.1741 103.953ZM16.0866 132.97C7.97157 124.563 10.6041 107.748 25.5891 105.048C30.4284 104.263 35.3912 105.11 39.6966 107.455C22.9791 102.085 10.0416 117.948 16.0866 132.97ZM40.3491 139.84C29.7141 144.213 20.9841 139.983 17.4741 131.508C13.8891 119.98 21.0816 108.19 33.7716 108.19C51.2916 107.973 56.7591 133.098 40.3491 139.84Z" fill="black"/>
<path d="M75.6524 50.297C74.4149 50.807 74.4149 51.7595 75.8024 51.7595C77.1899 51.7595 84.3524 49.277 87.1349 48.3245C89.9174 47.372 104.745 43.7195 105.33 43.427C105.915 43.1345 106.357 41.7471 103.575 42.2571C97.5299 43.3446 76.1024 50.117 75.6524 50.297Z" fill="black"/>
<path d="M90.6376 72.0847C88.7401 72.5947 86.1376 73.6897 84.7951 74.1247C83.4526 74.5597 83.6251 75.6247 84.9376 75.5872C86.2501 75.5497 90.3451 73.8322 91.0051 73.5397C91.6651 73.2472 92.5426 71.5671 90.6376 72.0847Z" fill="black"/>
<path d="M91.7906 66.6701C88.7231 67.7726 84.3356 68.9202 82.9481 69.5952C81.5606 70.2702 82.2881 71.0952 83.0981 71.0952C83.9081 71.0952 89.1356 69.2052 92.3756 68.0952C96.9506 66.5427 104.376 64.9527 105.876 64.3452C107.376 63.7377 107.706 62.1552 105.366 62.9577C103.026 63.7602 96.4106 65.1401 91.7906 66.6701Z" fill="black"/>
</svg>
