<svg width="142" height="144" viewBox="0 0 142 144" fill="none" xmlns="http://www.w3.org/2000/svg">
<path d="M61.3623 58.2378C61.0023 56.5878 60.4848 55.6953 59.5773 55.6953C58.6698 55.6953 58.0773 56.8053 57.7098 58.2378C57.4398 59.2503 58.6173 59.6778 58.6173 60.0003C58.6173 61.0803 55.2198 67.1478 55.3473 68.3028C55.4748 69.4578 58.4523 72.8928 59.3448 72.8928C60.2373 72.8928 63.2523 69.0003 63.2523 68.3253C63.2523 67.6503 60.4173 60.9678 60.3723 60.0003C60.3573 59.6178 61.6173 59.4078 61.3623 58.2378Z" fill="#007C52"/>
<path d="M59.5329 43.0801C55.9404 43.1626 54.0879 43.8301 54.3579 46.4026C54.5679 48.4276 56.2929 49.6576 59.5404 49.7326C64.6929 49.8526 65.3679 47.4826 65.3904 46.0351C65.4129 44.5876 65.1804 42.9451 59.5329 43.0801Z" fill="#007C52"/>
<path d="M72.6433 27.5326C72.5008 22.5001 68.0983 18.8026 60.2983 18.9526C50.2858 19.1401 48.4333 25.7626 48.7183 29.1226C48.8908 31.1851 49.5958 33.1051 53.7883 33.0901C57.4408 33.0901 58.4533 31.9651 58.0708 28.9651C58.0109 28.5869 58.0382 28.2 58.1506 27.8339C58.2631 27.4679 58.4577 27.1324 58.7197 26.8531C58.9816 26.5737 59.304 26.358 59.6621 26.2223C60.0202 26.0866 60.4045 26.0346 60.7858 26.0701C62.9083 26.0701 63.6133 26.8951 63.5383 28.3201C63.4033 30.9001 54.6508 33.2626 54.9883 38.5651C55.1533 41.0776 57.3658 41.0701 60.0433 41.0701C63.4933 41.0701 64.3108 41.1076 65.7283 38.2876C67.4233 34.8901 72.8983 34.4026 72.6433 27.5326Z" fill="#007C52"/>
<path d="M133.557 123.84C128.442 118.883 123.642 114.345 119.997 110.093C122.247 107.475 119.015 103.89 117.687 102.593C114.372 99.3454 111.492 98.0104 108.35 101.46L105.192 98.4604C137.172 59.5129 111.417 0.9604 60.3198 0.7354C26.7048 0.5479 0.0273438 26.1004 0.0273438 61.2529C0.0273438 111.623 59.8624 137.183 97.4523 106.253L100.31 109.403C99.3273 110.58 97.6699 111.57 97.4899 112.973C97.1973 115.545 99.7399 118.523 100.49 119.37C102.5 121.568 104.69 123.39 107.99 121.058C111.117 124.17 115.205 128.243 120.972 134.055C126.147 139.268 130.062 143.213 134.067 143.213C137.292 143.408 142.092 139.268 141.965 135.99C142.107 132.143 138.14 128.295 133.557 123.84ZM96.9574 104.303C62.8773 134.1 3.25234 112.193 1.85734 61.8304C0.432344 10.2679 61.9023 -16.6421 99.6723 18.0004C123.5 39.8854 123.62 82.0204 96.9574 104.303ZM98.8474 105.098C100.699 103.494 102.429 101.754 104.022 99.8929L107.09 102.788C105.477 104.779 103.648 106.585 101.637 108.173L98.8474 105.098ZM104.892 120.413C103.227 120.413 98.6898 114.795 99.3123 113.213C102.027 109.53 104.72 108.9 108.972 103.313C109.872 102.638 111.177 101.28 111.875 101.198C113.69 100.98 121.37 107.055 118.055 109.643C115.032 114.375 106.67 120.383 104.892 120.413ZM137.832 139.763C133.482 143.415 130.467 141.053 122.277 132.795C116.712 127.193 112.437 122.933 109.58 120.083C111.545 118.748 116.082 115.455 118.91 111.623C122.45 115.733 127.392 120.21 132.282 125.123C137.577 130.5 143.525 134.745 137.832 139.763Z" fill="black"/>
<path d="M69.3709 48.6454C65.1634 49.0579 64.7359 53.4379 59.2009 52.8604C51.9634 52.1854 55.1509 46.8604 48.2284 48.2104C48.7309 46.9054 48.9784 45.8254 47.9584 44.5579C46.3759 42.6529 40.2784 38.5579 37.8334 40.8904C34.1884 45.1429 28.5184 51.1054 29.6509 56.1829C30.6709 60.5854 37.8109 64.9954 44.1934 66.6229C43.6759 69.4279 43.6684 72.0904 44.1934 73.4629C42.3634 80.6929 41.1934 85.1029 39.3334 92.5579C34.3909 94.6354 33.5359 99.1354 38.1484 99.3829C42.2659 99.2479 48.6484 99.5254 53.3209 99.5928C56.5909 99.6454 57.2734 98.7379 57.7684 97.2529C58.8109 94.0804 59.0209 88.6729 60.1234 85.8379C61.8859 88.8979 60.2884 93.1354 60.8734 96.5179C61.1809 99.5854 62.6134 100.005 79.9459 99.5779C83.0209 99.5029 83.8159 95.1529 78.6859 92.6329C78.7309 86.0629 79.1659 81.9154 75.7834 75.8029C77.2834 76.1029 78.7834 76.4629 80.0584 75.3829C82.8934 73.0279 86.9659 65.8879 87.9784 62.3404C89.2534 54.5479 75.0859 48.9979 69.3709 48.6454ZM39.2209 42.0754C41.7259 41.9029 46.1584 44.5129 46.8634 46.3729C43.5559 46.4929 39.7309 44.9479 39.1984 42.1129L39.2209 42.0754ZM53.3809 97.7554C48.6934 97.6879 42.3034 97.4854 38.1259 97.5529C35.8384 97.5904 37.3084 95.4904 40.3084 94.1479C45.5584 94.4629 51.1009 96.0229 55.6009 97.4704C55.2484 97.7104 54.6334 97.7854 53.3809 97.7554ZM79.9459 97.7554C69.8134 97.8004 66.8959 98.3329 63.0034 97.1404C67.7622 95.5908 72.6809 94.5844 77.6659 94.1404C80.0959 95.1904 81.5884 97.5004 79.9459 97.7479V97.7554ZM76.7884 83.6029C76.9384 86.4979 76.8634 89.4904 76.9009 92.3929C72.0608 92.8655 67.2843 93.8484 62.6509 95.3254C62.3434 92.4529 64.2859 83.7829 59.6509 83.9629C57.1984 84.9154 57.4009 92.8204 56.3059 95.7829C51.4472 94.1026 46.416 92.9705 41.3059 92.4079C42.9859 85.7629 44.0734 81.5254 45.6934 75.1579C53.0284 79.4104 67.4434 79.5604 73.8484 75.8029C74.8084 78.4654 76.6159 81.1879 76.7884 83.5954V83.6029ZM78.4984 74.2504C75.7684 74.5204 70.3909 71.9179 70.3084 69.6754C71.8084 69.0829 78.1684 70.9654 78.6559 74.1754C78.6074 74.208 78.5543 74.2333 78.4984 74.2504ZM86.2384 61.8304C85.2484 65.3629 82.2484 70.2679 80.2159 72.7504C78.7159 69.8329 74.1709 67.7254 70.9159 67.7554C71.9523 65.5936 73.1744 63.5258 74.5684 61.5754C74.6735 61.3768 74.7019 61.1465 74.6481 60.9283C74.5943 60.7101 74.4621 60.5194 74.2768 60.3924C74.0914 60.2654 73.8658 60.2111 73.6429 60.2398C73.4201 60.2684 73.2156 60.3781 73.0684 60.5479C67.6909 68.7979 66.2659 70.5979 72.5509 74.4754C68.9134 77.4754 49.4734 77.4304 45.9859 72.9079C45.2359 71.6404 45.6934 65.0629 48.0709 61.0279C48.1354 60.9235 48.1784 60.8073 48.1971 60.686C48.2158 60.5647 48.2099 60.441 48.1799 60.322C48.1498 60.2031 48.0961 60.0914 48.0219 59.9936C47.9478 59.8958 47.8548 59.8139 47.7484 59.7529C45.9109 59.0029 45.1609 63.4579 44.6059 64.8304C38.3509 63.2329 32.2084 59.0554 31.4509 55.7704C30.6409 52.2529 34.7284 47.2954 37.7734 43.7704C39.3184 46.4254 42.3859 48.0904 46.2484 48.2704C45.1834 50.5729 43.7509 52.9204 42.5734 55.4704C42.512 55.6836 42.5296 55.9117 42.6229 56.1131C42.7161 56.3144 42.8788 56.4753 43.0811 56.5665C43.2833 56.6576 43.5117 56.6727 43.7242 56.6092C43.9368 56.5456 44.1193 56.4076 44.2384 56.2204C45.2509 54.0454 46.3009 52.2229 47.3059 50.2204C49.4509 49.7179 51.2509 49.7629 51.5509 49.9954C52.0963 51.0215 52.8419 51.9279 53.7436 52.6608C54.6454 53.3938 55.685 53.9386 56.8009 54.2629C56.1184 55.5529 55.1434 57.2629 54.6259 57.6229C53.9509 57.4879 52.5109 55.8079 51.6709 53.3329C51.632 53.2191 51.5711 53.114 51.4917 53.0238C51.4122 52.9335 51.3157 52.8598 51.2078 52.8069C51.0998 52.754 50.9825 52.7228 50.8624 52.7153C50.7424 52.7077 50.6221 52.7239 50.5084 52.7629C50.2784 52.8415 50.0887 53.0077 49.9806 53.2254C49.8724 53.443 49.8546 53.6946 49.9309 53.9254C50.8384 56.5879 52.7209 59.4604 54.7084 59.4604C55.9084 59.4604 56.9584 57.9604 58.6834 54.6154C59.2933 54.6846 59.908 54.7022 60.5209 54.6679C63.3784 60.9229 66.4609 60.2179 69.6334 54.9454C69.7488 54.7337 69.7761 54.4851 69.7093 54.2534C69.6424 54.0218 69.4869 53.8259 69.2764 53.7083C69.0659 53.5908 68.8176 53.561 68.5853 53.6255C68.353 53.69 68.1556 53.8436 68.0359 54.0529C67.0534 55.8154 65.4184 57.3754 64.8109 57.3754C64.4509 57.3754 63.4084 56.3179 62.4184 54.3754C65.5609 53.7979 66.9184 50.8579 69.2959 50.4379C73.9309 50.6929 86.7484 55.7029 86.2609 61.8379L86.2384 61.8304Z" fill="black"/>
<path d="M94.9318 23.4455C75.8818 5.64799 44.1718 5.693 25.4818 23.243C-6.96316 53.2505 11.4493 111.075 61.0018 111.653C104.472 112.95 127.092 53.498 94.9318 23.4455ZM65.8168 109.576C36.9493 112.576 11.1343 90.0755 11.1343 62.078C11.1343 30.9005 33.4993 12.7505 60.5893 11.6405C90.3868 12.3905 107.239 34.178 108.364 55.6955C109.579 78.833 94.6543 106.598 65.8168 109.576Z" fill="black"/>
</svg>
