<svg width="150" height="130" viewBox="0 0 150 130" fill="none" xmlns="http://www.w3.org/2000/svg">
<path d="M132.569 46.3206C133.958 52.6426 132.885 59.3011 129.261 63.6854C128.866 64.1616 129.877 65.3271 131.566 63.045C134.645 58.9399 135.419 52.5605 134.029 47.1171C133.422 44.7935 132.34 45.1219 132.569 46.3206Z" fill="#007C52"/>
<path d="M22.8325 84.096C23.5193 84.0139 22.7535 82.4539 22.6746 79.9908C22.5246 78.3898 21.293 78.1517 21.293 79.9908C21.3167 81.6903 21.9798 84.1699 22.8325 84.096Z" fill="#007C52"/>
<path d="M38.0653 52.0019C37.8285 53.1186 39.5259 52.9626 40.5996 52.9626C41.6732 52.9626 41.1443 51.5997 40.6786 51.3205C40.2127 51.0413 38.2943 51.0413 38.0653 52.0019Z" fill="#007C52"/>
<path d="M35.7523 40.7129C34.2761 41.3204 33.6761 43.5947 32.5945 44.7196C31.5128 45.8444 26.8945 43.7918 26.8945 49.5144C26.8945 51.5177 28.5445 52.3223 28.5129 50.9594C28.3708 44.3009 32.2629 48.1514 33.8339 45.9429C34.5445 44.9166 35.2866 42.6588 36.2892 42.1826C37.2918 41.7064 44.8312 41.6982 45.6839 42.5767C47.1445 44.1777 46.4734 47.1416 49.2997 47.5029C49.9421 47.5627 50.5553 47.8103 51.0681 48.2172C51.5339 49.0381 51.5339 50.4586 51.147 52.0595C51.101 52.1648 51.0852 52.2816 51.1015 52.3959C51.1178 52.5102 51.1655 52.6172 51.2389 52.7039C51.3124 52.7907 51.4083 52.8536 51.5153 52.8849C51.6222 52.9163 51.7356 52.9147 51.8418 52.8806C52.9075 52.5358 53.3023 49.0382 52.3786 47.5192C51.5891 46.2385 49.4655 46.3863 48.6839 45.4338C48.076 44.7031 47.8392 42.4782 46.6786 41.4355C45.1392 40.0725 36.5891 40.3763 35.7523 40.7129Z" fill="#007C52"/>
<path d="M79.1588 34.9491C77.3115 35.2693 75.3141 32.3136 73.5382 32.3875C71.7618 32.4614 70.0803 34.711 69.5434 34.4483C68.3118 34.046 67.175 31.9852 65.9198 32.3629C64.6645 32.7405 63.7645 34.2102 63.2277 34.2841C62.6908 34.358 61.4593 32.0837 59.7698 32.1247C58.0803 32.1658 56.454 34.7685 55.3804 34.6864C54.3066 34.6043 53.604 31.55 51.9935 31.1642C49.3646 30.5813 47.0672 33.7258 46.3725 33.6272C45.9936 33.5534 45.583 32.1904 45.5277 31.1642C45.4725 30.1379 43.9488 30.4416 44.4541 33.3234C44.762 35.3268 45.6856 36.9278 49.0725 33.9638C50.6515 32.6091 51.5356 32.1247 52.6882 34.2102C55.7672 39.5961 57.8751 33.89 59.6119 33.89C60.8277 33.89 61.7671 36.9278 63.7645 35.8851C64.6882 35.4089 65.3434 34.5304 65.7698 34.3662C66.3066 34.1281 67.925 36.6076 69.7172 36.4516C71.2961 36.2874 72.7171 34.4483 73.4908 34.4483C74.7223 34.5304 75.8589 36.4516 78.1799 36.4516C80.1615 36.312 80.7772 34.711 79.1588 34.9491Z" fill="#007C52"/>
<path d="M56.9977 70.6473C56.5319 70.5735 56.303 69.6046 55.9161 69.4486C55.2213 69.2844 54.0687 70.5653 53.6108 70.6473C53.153 70.7295 52.8214 70.2451 52.3003 69.5226C51.8424 69.0464 51.2977 69.5226 51.6056 70.4093C51.8845 71.1777 52.4352 71.8066 53.1451 72.1663C54.2267 72.1663 54.7635 71.4438 55.3003 71.3453C55.8372 71.2467 55.9161 72.3058 56.8793 72.2238C57.8424 72.1416 59.1135 70.8609 58.8056 70.3026C58.5372 69.9249 57.6293 70.7377 56.9977 70.6473Z" fill="#007C52"/>
<path d="M46.7592 70.8033C47.1776 65.401 41.7066 70.9922 35.9119 65.2861C34.9093 64.2437 34.2303 64.1862 33.2908 64.7278C30.7106 66.1145 27.7509 66.5373 24.9066 65.9265C23.1461 65.4092 22.8304 66.2467 22.5382 67.4454C22.2461 68.6441 21.4566 72.0842 21.6856 73.4471C21.7646 74.1696 22.6882 74.3256 22.8461 73.1269C23.9435 67.3797 23.8725 67.3797 25.0725 67.5275C28.12 67.9191 31.2122 67.4191 34.0014 66.0825C34.3882 65.9265 34.4672 65.9265 34.7908 66.1646C37.1039 68.6277 40.5697 69.9249 44.5645 69.6868C45.1092 69.6868 45.4881 69.6047 45.2592 71.3289C43.9487 83.8167 36.2592 89.2519 31.5619 91.5755C29.2488 92.6675 27.4172 90.0812 25.9409 87.8972C25.0172 86.5343 23.4856 86.5343 24.0935 87.733C25.7909 91.0172 28.0961 93.4146 29.9435 93.5788C33.0619 93.7759 45.4487 86.7313 46.7592 70.8033Z" fill="#007C52"/>
<path d="M36.3146 82.6505C35.8566 83.135 36.1646 84.1695 37.104 83.529C39.4092 81.887 40.8776 79.6867 41.8409 74.7276C42.3856 72.3302 39.6145 72.2645 38.683 72.0839C37.8935 71.9279 37.7592 72.7243 38.2171 73.2087C39.2277 74.2596 40.7909 73.4304 40.2935 74.9657C39.768 77.896 38.3771 80.5824 36.3146 82.6505Z" fill="#007C52"/>
<path d="M61.3809 45.4338C62.0756 45.3599 62.8414 46.9527 64.1519 47.0759C65.2335 47.0759 65.6914 46.3615 66.465 46.1973C67.2388 46.0331 69.0782 47.6752 70.8466 47.5849C72.615 47.4946 73.215 45.9428 73.9256 45.8197C74.6361 45.6965 76.6962 46.8624 78.0067 47.1826C79.3172 47.5028 79.0804 46.6982 78.3936 46.1399C73.3572 42.0347 72.5045 45.7376 70.6176 45.9017C69.8281 45.9839 67.9255 44.1366 66.3071 44.4568C65.4623 44.621 64.9256 45.3435 64.1519 45.0972C63.694 44.9412 62.573 43.5783 61.6888 43.4961C60.2283 43.3401 59.5335 45.0972 58.8467 45.0972C58.1599 45.0972 57.2125 43.5701 56.6125 44.2761C55.902 45.0972 57.6151 46.7392 58.7677 46.9117C59.9204 47.0841 60.923 45.5159 61.3809 45.4338Z" fill="#007C52"/>
<path d="M16.1304 100.902C15.8225 103.217 15.5225 108.102 17.7489 107.864C19.6751 107.7 22.1304 102.593 22.754 102.741C23.133 102.831 22.754 107.224 24.6804 107.142C25.983 107.06 26.8278 105.303 27.9093 105.065C28.6041 104.9 30.2777 106.337 31.1383 106.181C32.1409 106.025 29.2198 103.217 27.7514 103.464C26.6778 103.62 25.5251 105.459 24.7514 105.541C24.1357 105.623 24.7514 101.436 22.9041 101.14C21.2146 100.902 18.2857 106.263 17.7489 106.263C17.0541 106.263 17.212 103.382 17.212 101.937C17.3699 100.179 16.3673 99.457 16.1304 100.902Z" fill="#007C52"/>
<path d="M36.4527 70.8853C34.7396 70.0068 34.7396 68.8081 33.9501 68.6439C32.1738 68.4386 33.1607 70.4091 27.4133 70.4091C26.4897 70.4091 25.5659 70.1628 25.0449 72.0511C22.7397 80.4257 27.6343 88.1762 30.3738 88.1762C31.6843 88.1762 33.6817 86.5342 34.6054 85.7131C35.529 84.8921 34.9922 83.8658 31.4475 86.1072C30.6028 86.6738 30.0659 86.7476 29.2212 85.7871C27.6965 83.9931 26.6352 81.8247 26.1367 79.4873C25.6382 77.149 25.7189 74.7179 26.3712 72.4206C26.4149 72.263 26.5057 72.1242 26.6307 72.0233C26.7556 71.9231 26.9081 71.8664 27.0659 71.8624C29.0633 72.1004 31.4475 72.1826 33.2948 70.6637C34.0212 70.0561 33.8791 71.3369 35.4501 71.7064C36.1448 71.8459 37.3764 71.3944 36.4527 70.8853Z" fill="#007C52"/>
<path d="M61.9261 55.7953C63.2288 55.7953 64.3814 53.8741 64.8472 53.8741C65.313 53.8741 66.5367 55.393 67.6182 55.393C69.3867 55.393 70.3893 54.1122 71.084 54.1122C71.7787 54.1122 73.1603 55.6311 74.7708 55.393C76.381 55.1549 77.2336 53.4718 78.1573 54.2764C79.9336 55.9184 81.6231 56.1155 82.8942 55.0975C83.9678 54.1368 83.2731 53.0941 82.5073 53.4554C78.9863 55.0153 79.152 49.7854 75.4021 53.1352C73.6339 54.6623 72.5524 52.4948 71.0208 52.3141C69.7893 52.1499 68.6524 53.677 67.555 53.5128C66.4577 53.3486 65.013 50.475 63.0156 53.0366C61.784 54.5555 61.0893 53.8577 60.2446 52.9546C59.3999 52.0514 58.4761 52.3141 58.934 53.2748C59.2104 53.677 60.3077 55.7953 61.9261 55.7953Z" fill="#007C52"/>
<path d="M108.25 34.7933C111.661 33.6438 115.482 34.0872 119.019 35.1956C119.808 35.5158 119.564 33.8327 116.019 32.9542C109.008 31.1644 105.329 35.7539 108.25 34.7933Z" fill="#007C52"/>
<path d="M94.9338 63.045C90.5916 56.7887 89.6285 47.8395 93.3548 41.2713C93.9706 40.1546 92.2021 40.0726 91.2074 42.158C88.3575 47.9955 88.9732 56.1648 92.668 62.2404C93.86 64.1616 95.6521 64.0713 94.9338 63.045Z" fill="#007C52"/>
<path d="M94.3166 47.4368C93.2429 52.56 94.3955 58.8819 98.1692 62.5602C99.8587 64.2433 100.853 63.217 100.324 62.7244C95.8324 58.5207 94.585 51.6404 96.2429 46.0739C96.606 44.8669 94.7824 45.0394 94.3166 47.4368Z" fill="#007C52"/>
<path d="M29.9042 51.8375C29.7542 54.161 31.3726 55.5239 33.5988 55.5978C36.5278 55.6799 37.9883 51.5994 36.141 49.44C35.6623 48.8854 35.0343 48.4931 34.3387 48.314C33.6431 48.1349 32.9118 48.1774 32.2396 48.4358C31.5674 48.6941 30.9853 49.1566 30.5689 49.7631C30.1525 50.3697 29.9208 51.0924 29.9042 51.8375ZM33.4488 53.9967C30.4489 54.0789 31.0804 49.7602 33.4488 49.7602C35.8172 49.7602 36.3699 53.8407 33.4488 53.9967Z" fill="#007C52"/>
<path d="M104.398 30.9509C109.512 29.1758 115.058 29.2889 120.1 31.2711C120.423 31.4355 120.758 31.5702 121.103 31.6735C121.79 31.9115 121.64 30.1463 118.482 29.1118C114.899 27.8276 111.029 27.6846 107.366 28.7013C104.09 29.588 103.419 31.3532 104.398 30.9509Z" fill="#007C52"/>
<path d="M32.7542 120.426C28.3647 120.27 8.28066 119.737 6.97015 119.384C5.03591 118.858 4.30175 118.792 16.6727 69.3665C20.9832 51.7556 25.2147 33.2414 30.37 20.4662C32.0358 16.4185 35.1069 16.9439 47.6831 16.9439C46.9883 18.8652 47.2252 20.5483 49.9962 21.0491C52.5304 21.2872 79.009 21.6895 83.6984 21.6895C87.3931 21.6895 88.9325 20.3266 88.4352 18.0113C88.3065 17.6446 88.2039 17.2687 88.1273 16.8865C92.8641 16.9686 99.6693 16.7305 103.056 17.1328C107.367 17.6911 106.285 21.3693 106.214 24.3332C106.214 26.7963 107.288 26.4925 107.446 24.9736C107.753 21.7716 108.235 19.1608 106.98 17.3708C105.511 15.2854 102.954 15.2854 87.7404 15.2854C85.2773 6.96842 80.201 11.7632 74.0435 8.96351C73.254 8.14253 74.1224 6.96842 74.0435 4.56281C73.8461 -1.67706 63.0777 -0.502947 64.9251 6.5333C67.104 13.0194 53.3041 6.5333 50.5252 11.9849C49.9094 12.9456 49.0647 14.2263 48.3699 15.5072C35.2015 15.5072 31.0726 14.8092 28.9726 19.9079C23.4463 33.7504 19.5937 50.8689 15.3622 67.7654C10.9727 84.8921 5.73854 104.26 4.20701 117.027C4.04913 118.464 4.35701 120.229 6.51226 120.87C7.97277 121.272 32.2174 122.068 35.7226 122.068C37.9884 122.027 37.1436 120.508 32.7542 120.426Z" fill="#007C52"/>
<path d="M46.374 48.4058C41.7635 48.4879 41.6846 56.0085 46.5319 55.8525C51.3793 55.6965 50.7635 48.4058 46.374 48.4058ZM46.303 54.3254C43.5319 54.1694 43.8399 50.0068 46.374 50.0068C49.224 50.0479 49.1451 54.4814 46.303 54.3172V54.3254Z" fill="#007C52"/>
<path d="M139.188 18.0279C137.033 17.7077 135.564 17.7077 133.488 20.4335C131.838 22.5436 117.249 42.3139 112.559 47.6753C111.556 48.8001 111.17 48.1597 110.017 46.3206C102.288 34.0051 102.525 29.9 98.8618 31.5913C96.375 32.7325 93.2408 34.391 95.0882 38.1595C97.3934 42.8804 105.17 62.0926 111.17 62.1747C114.249 62.1747 116.254 60.4916 118.717 57.3717C119.641 56.2386 138.154 31.7473 141.312 27.2644C145.883 20.6223 145.188 18.8489 139.188 18.0279Z" fill="#007C52"/>
<path d="M130.72 50.2369C130.183 46.7968 128.802 47.3551 128.952 48.3978C129.383 50.9993 129.227 53.6695 128.495 56.1974C127.764 58.7253 126.477 61.0414 124.736 62.9629C124.27 63.4474 125.581 64.3258 127.199 62.4046C128.562 60.7389 129.578 58.798 130.184 56.7038C130.79 54.6098 130.973 52.408 130.72 50.2369Z" fill="#007C52"/>
<path d="M89.546 109.301C82.0066 109.704 81.6514 122.109 90.0119 122.192C98.0882 122.348 98.317 108.899 89.546 109.301ZM89.9329 120.664C83.3092 120.344 84.1619 110.984 89.625 110.984C96.4697 110.902 96.0118 120.911 89.9329 120.656V120.664Z" fill="black"/>
<path d="M145.341 93.2993C144.022 75.1627 146.604 67.8474 135.646 66.5665C126.646 65.606 73.9254 65.688 70.0018 66.2463C67.4597 66.5665 64.0729 67.0674 62.1545 70.2448C59.9992 73.9312 55.8387 81.3697 53.7624 86.0906C50.4663 87.3789 47.2944 88.9872 44.2888 90.8937C39.7019 90.5407 34.6019 95.9512 37.3651 100.262C37.1362 101.698 37.5151 103.94 37.2862 104.744C33.094 109.564 34.3493 119.318 41.3677 121.387C42.3817 121.641 43.4101 121.827 44.4467 121.945C44.878 123.233 45.5877 124.401 46.5211 125.359C47.4545 126.317 48.5868 127.04 49.8308 127.471C27.8994 127.315 10.1205 126.912 6.03893 125.952C0.891629 124.671 1.12841 120.656 2.05214 115.623C2.6679 111.781 21.0547 31.8291 25.902 20.3018C29.5336 11.7138 33.0704 12.5759 49.8387 12.8632C50.2061 12.3386 50.541 11.79 50.8413 11.2212C49.3808 11.2212 35.9125 11.1391 33.9072 11.3772C31.752 11.6235 27.6783 12.1982 24.5205 19.5464C19.5942 31.2708 1.12849 111.543 0.512649 115.467C-0.182019 119.63 -1.26363 125.787 5.66791 127.553C15.1416 130.016 142.546 128.981 144.962 128.907C147.804 128.834 145.806 127.315 143.264 127.389H140.343C144.109 125.952 146.572 122.585 147.117 116.986C148.989 114.388 150 111.23 150 107.983C150 104.738 148.989 101.579 147.117 98.9808C146.114 97.4537 145.577 96.5013 145.341 93.2993ZM143.185 89.0546C136.341 89.6129 136.341 88.4962 136.183 86.8131C136.033 84.9741 135.875 77.9296 136.033 74.4073C136.12 71.5256 137.075 72.0099 141.646 72.0099C142.719 74.7933 142.814 79.7194 143.185 89.0546ZM56.1466 85.1301C63.3386 71.0001 62.265 71.3532 65.9202 71.1233C69.5755 70.8934 87.7014 70.8852 93.7013 71.4435C96.5513 71.6897 96.7803 71.6077 96.2434 73.611C94.8034 77.8771 93.1084 82.0455 91.1672 86.0906C89.8567 88.5538 89.3198 89.2927 86.0829 89.2106C83.004 89.1367 61.4597 88.3895 58.4518 88.0119C55.8387 87.6917 55.6887 86.0906 56.1466 85.1301ZM39.3703 95.2944C41.9914 91.6983 45.0703 92.4947 45.7572 94.1778C46.9177 96.9775 44.0677 99.6951 41.3756 99.925C38.6835 100.155 37.373 97.9381 39.3703 95.2944ZM57.6307 127.553C58.8302 127.1 59.9302 126.402 60.8658 125.499C61.8014 124.596 62.5537 123.508 63.0781 122.298C69.8991 122.002 72.7886 122.298 74.8491 121.42C75.6935 124.622 78.5435 126.699 81.954 127.659C73.7754 127.627 65.5255 127.627 57.6307 127.553ZM89.3198 126.403C75.8515 125.525 77.7777 106.157 89.0119 105.598C92.5487 105.434 97.6329 107.437 98.2487 113.037C98.5566 115.845 98.3197 118.078 98.7856 119.679C98.1729 121.749 96.9027 123.541 95.1832 124.763C93.4637 125.985 91.3969 126.563 89.3198 126.403ZM94.1672 127.528C95.4666 127.007 96.6532 126.221 97.6573 125.218C98.6623 124.214 99.4644 123.012 100.017 121.682C100.554 122.003 101.012 122.323 102.938 122.167C103.87 124.546 105.67 126.444 107.943 127.446C103.475 127.553 98.8645 127.553 94.1672 127.553V127.528ZM116.714 127.446C118.797 126.736 120.535 125.215 121.562 123.201C122.351 125.287 124.491 126.641 127.025 127.364C123.717 127.471 120.259 127.471 116.714 127.471V127.446ZM145.262 116.502C145.025 122.906 141.314 126.912 134.872 126.428C121.017 125.393 123.559 105.861 134.714 104.498C141.693 103.653 145.514 108.62 145.262 116.502ZM147.18 113.464C146.027 96.6409 122.904 96.6163 121.917 116.666C121.838 119.548 121.609 119.63 120.914 119.868C119.612 120.344 107.375 120.59 102.907 120.426C98.4382 120.262 102.907 109.753 95.9039 103.702C93.4724 101.592 90.1172 100.492 85.9014 101.378C77.2172 103.201 76.2777 113.144 75.8988 116.83C75.5909 120.024 74.3202 120.188 68.6597 120.27C62.1229 120.188 48.4966 120.984 42.0388 119.449C36.7256 118.168 35.723 109.597 38.4151 106.887C39.6467 105.607 39.4177 103.603 39.3388 101.682C45.2203 103.62 50.8177 95.4832 46.5782 91.92C49.047 90.3912 51.6478 89.1046 54.3466 88.0775C55.2702 89.0382 56.194 89.5554 58.5781 89.6786C59.1386 89.6786 84.804 90.8773 86.825 90.8773C90.2908 90.8773 91.4277 89.7935 92.7461 86.9609C94.5927 83.2384 96.2142 79.3992 97.6013 75.4665C98.7066 71.5092 99.2908 70.1298 93.9777 69.785C86.1303 69.3006 68.9675 69.4648 65.557 69.7029C67.136 68.7423 68.9518 68.537 70.7202 68.34C74.4149 67.9376 126.899 67.7816 135.591 68.6601C138.362 68.9803 139.901 69.6208 140.825 70.6635C138.456 70.6635 134.896 69.5387 134.667 74.5059C134.517 78.102 134.667 85.2286 134.825 87.0677C134.896 90.1137 136.751 90.9758 139.901 90.828C141.133 90.7787 142.514 90.828 143.438 90.7541C143.517 91.7886 143.517 92.7492 143.596 93.5538C143.983 99.3913 146.825 100.992 147.977 104.917C148.709 107.772 148.429 110.806 147.188 113.464H147.18Z" fill="black"/>
<path d="M134.802 97.9383C137.226 102.7 145.768 98.7594 141.268 93.3734C140.628 92.6435 139.757 92.1772 138.813 92.0614C137.871 91.9448 136.919 92.1862 136.132 92.7412C135.347 93.2962 134.779 94.1271 134.535 95.082C134.291 96.0368 134.386 97.0508 134.802 97.9383ZM140.802 97.0599C140.595 97.5163 140.271 97.9038 139.865 98.1797C139.459 98.4564 138.988 98.6116 138.503 98.6272C138.018 98.6436 137.539 98.5204 137.118 98.2717C136.695 98.0221 136.348 97.6576 136.113 97.2159C135.888 96.8382 135.765 96.4038 135.757 95.9597C135.75 95.5155 135.859 95.077 136.072 94.6912C136.285 94.3061 136.594 93.9875 136.967 93.77C137.339 93.5524 137.762 93.444 138.189 93.4556C139.571 93.3734 141.528 95.3932 140.802 97.0599Z" fill="black"/>
<path d="M122.098 92.3387C118.719 92.4947 116.793 93.3732 116.793 95.0563C116.793 97.2977 120.488 97.5194 122.793 97.6179C130.103 97.9381 129.18 92.0185 122.098 92.3387ZM118.332 95.1385C118.253 93.6934 126.061 93.2172 126.18 94.9743C126.298 96.7312 118.419 96.4192 118.332 95.1385Z" fill="black"/>
<path d="M130.876 77.9626C130.798 72.8393 130.087 70.4419 124.182 70.4419C102.629 70.4091 104.777 68.1102 100.261 81.452C97.3398 81.3698 96.645 85.0563 95.8714 87.2894C94.6398 87.3716 92.7924 87.5358 92.7135 90.4915C92.5556 94.7362 94.174 94.0137 99.3293 94.0958C102.14 118.669 101.587 118.505 110.255 118.505C119.105 118.505 120.408 118.677 121.111 114.022C121.569 110.426 122.8 104.991 127.426 101.707C132.329 98.2174 130.876 97.3963 130.876 77.9626ZM124.103 71.7966C130.071 71.9033 129.124 73.1349 129.416 86.3617C129.416 90.0235 128.934 89.0054 108.637 89.0054C107.784 89.0054 107.848 88.1269 107.848 87.8888C108.005 86.5259 108.092 83.1515 107.461 82.4454C106.174 80.984 103.695 81.3206 101.769 81.4027C105.882 69.3007 104.066 71.7638 124.103 71.7638V71.7966ZM95.3977 92.4127C94.8608 92.3388 94.1661 92.3388 94.1661 90.3355C94.245 87.5358 96.5819 89.4652 97.245 87.6918C97.8055 86.1811 98.0898 83.0529 100.403 82.8887C105.866 82.4946 106.79 82.8149 106.632 85.1301C106.482 86.9774 106.324 88.6523 106.016 90.8117C105.866 91.9365 105.013 92.2567 103.324 92.4127C100.686 92.6204 98.036 92.6204 95.3977 92.4127ZM129.258 96.5178C128.871 100.754 121.64 99.4736 119.334 113.76C119.026 115.681 118.482 116.321 117.021 116.641C113.46 116.875 109.888 116.903 106.324 116.723C102.834 116.296 103.261 112.873 100.798 93.9891C103.648 93.9891 106.877 94.1533 107.421 90.9513C107.413 90.8134 107.437 90.6753 107.492 90.549C109.648 90.631 118.426 90.549 122.579 90.549C125.579 90.4668 127.963 90.8692 129.432 89.8264C129.509 92.0531 129.451 94.283 129.258 96.5014V96.5178Z" fill="black"/>
<path d="M111.02 26.0653C111.944 25.8273 112.101 23.7746 112.101 21.5086C112.33 9.13571 104.12 11.5906 85.4727 11.3443C86.0214 11.7098 86.4508 12.2393 86.7043 12.8632C91.6305 12.7811 97.6384 12.7811 101.633 12.9453C107.562 13.1833 110.72 14.144 110.562 21.4265C110.523 25.4168 110.325 26.2377 111.02 26.0653Z" fill="black"/>
<path d="M69.1574 7.82217C72.8522 7.82217 72.7732 2.1407 69.1574 2.07496C65.6916 1.97643 65.3838 7.82217 69.1574 7.82217ZM69.1574 6.22121C68.8307 6.22121 68.5175 6.08623 68.2866 5.84602C68.0555 5.60582 67.9259 5.28006 67.9259 4.94037C67.9259 4.60076 68.0555 4.27491 68.2866 4.03471C68.5175 3.79451 68.8307 3.6596 69.1574 3.6596C69.484 3.6596 69.7973 3.79451 70.0282 4.03471C70.2592 4.27491 70.389 4.60076 70.389 4.94037C70.389 5.28006 70.2592 5.60582 70.0282 5.84602C69.7973 6.08623 69.484 6.22121 69.1574 6.22121Z" fill="black"/>
<path d="M77.3657 92.4126C70.2608 90.6556 63.6688 103.62 73.4187 104.26C80.4683 104.744 86.0498 94.5801 77.3657 92.4126ZM71.3661 101.542C68.2082 98.9316 74.0029 93.3321 77.0578 94.4159C84.392 96.4192 75.2341 104.662 71.3898 101.542H71.3661Z" fill="black"/>
<path d="M57.7639 107.864C61.3796 107.782 66.448 108.258 67.1507 103.759C67.5375 101.033 66.3059 100.073 63.6139 99.7525C59.0039 99.365 54.3726 99.338 49.7586 99.6705C47.2955 99.9167 46.3008 101.756 46.6797 103.776C47.6034 108.02 53.8402 107.938 57.7639 107.864ZM53.7612 101.14C56.8481 101.14 64.8139 101.14 65.5401 102.101C66.2665 103.061 65.4612 106.025 61.5375 106.263C58.1507 106.419 48.8428 107.158 48.2192 103.62C47.7061 100.672 51.1481 101.14 53.7612 101.14Z" fill="black"/>
<path d="M70.924 110.664C68.9267 110.582 50.761 110.344 44.682 110.344C40.1426 110.344 39.6768 111.386 39.2978 112.503C39.0311 113.405 39.1148 114.379 39.5309 115.217C39.9473 116.056 40.6628 116.69 41.5241 116.986C45.0689 118.349 61.5767 118.103 64.7345 118.029C70.0477 117.864 71.5477 118.152 73.3556 116.501C74.4135 115.574 74.9977 110.902 70.924 110.664ZM42.3767 115.065C40.7978 112.988 43.8373 110.664 45.4478 112.823C47.0583 114.983 43.9873 117.142 42.3767 115.065ZM61.6162 116.83C58.8609 116.83 53.8873 116.699 51.1478 116.428C49.5294 116.263 48.3767 114.868 50.532 114.909C52.6873 114.95 61.0004 115.147 62.4609 115.229C63.9214 115.311 63.3846 116.83 61.6162 116.83ZM64.924 113.784C63.1556 113.661 48.6846 113.546 48.0689 113.464C47.2794 113.308 47.832 111.904 49.6478 111.781C51.4636 111.657 63.0688 112.027 64.2688 112.265C65.7688 112.585 66.6924 113.907 64.924 113.784ZM70.3872 116.189C70.1344 116.233 69.8758 116.222 69.6271 116.159C69.3782 116.095 69.1443 115.98 68.9394 115.821C68.7343 115.661 68.5625 115.46 68.434 115.23C68.3055 114.999 68.2231 114.744 68.1917 114.479C68.1604 114.215 68.1806 113.946 68.2514 113.691C68.3221 113.435 68.4418 113.196 68.6032 112.989C68.7648 112.783 68.9648 112.612 69.1913 112.487C69.4178 112.364 69.6661 112.287 69.9214 112.265C70.1742 112.222 70.4327 112.233 70.6815 112.296C70.9302 112.359 71.1642 112.474 71.3692 112.634C71.5742 112.794 71.7461 112.995 71.8745 113.226C72.003 113.456 72.0854 113.712 72.1168 113.976C72.1481 114.24 72.1279 114.508 72.0572 114.764C71.9864 115.02 71.8667 115.259 71.7052 115.465C71.5437 115.672 71.3437 115.843 71.1172 115.968C70.8907 116.092 70.6424 116.167 70.3872 116.189Z" fill="black"/>
<path d="M139.111 110.106C129.953 104.104 124.332 121.387 135.645 121.945C141.187 122.298 144.724 113.784 139.111 110.106ZM132.487 119.063C128.643 115.467 131.8 110.344 135.495 110.426C144.416 110.746 139.49 124.507 132.487 119.063Z" fill="black"/>
</svg>
