<svg width="125" height="108" viewBox="0 0 125 108" fill="none" xmlns="http://www.w3.org/2000/svg">
<path d="M45.1266 99.9031C45.1428 95.8555 45.541 91.8184 46.3161 87.8456C46.3967 87.437 46.369 87.0144 46.2355 86.6198C46.1021 86.2252 45.8677 85.8725 45.5556 85.5966C43.2353 83.5321 41.163 81.2046 39.3806 78.6611C39.1571 78.3362 39.0229 77.9582 38.9915 77.5651C38.9601 77.1719 39.0327 76.7775 39.2019 76.4212C39.3712 76.065 39.6311 75.7595 39.9557 75.5354C40.2802 75.3114 40.658 75.1766 41.0511 75.1446C45.7701 74.6376 49.4621 71.6021 50.1511 70.3281C59.7386 77.1986 79.2516 72.9866 83.3011 70.7181C85.7082 69.3912 87.6723 67.3864 88.9496 64.9526C88.9496 64.9526 93.9676 65.6026 97.1396 76.8151C97.4358 77.8238 97.4676 78.8916 97.232 79.9161C96.9964 80.9406 96.5012 81.8873 95.7941 82.6651C91.8941 86.8316 83.9771 88.3526 79.8951 84.3941C80.1681 86.9551 74.2661 88.8141 69.5861 88.8336C68.0586 87.8521 65.3286 84.3421 63.8791 84.7581C62.4296 85.1741 61.5846 85.7981 61.3571 87.2476C59.4071 84.7516 55.2081 83.8676 52.9526 85.5901C50.6971 87.3126 50.4566 102.536 57.4051 104.206C53.7916 104.221 50.2041 103.594 46.8101 102.354C46.3127 102.166 45.8846 101.831 45.5836 101.393C45.2826 100.955 45.1231 100.435 45.1266 99.9031Z" fill="#007C52"/>
<path d="M39.5553 27.5515C47.8623 1.11599 15.9018 14.597 27.9268 25.1335C29.1813 25.7835 30.3383 23.554 30.8648 22.761C27.6148 19.394 34.0758 13.466 36.0648 19.3745C36.4743 21.7665 33.9978 23.4045 34.3033 26.466C34.1993 30.5285 38.9508 30.1515 39.5553 27.5515Z" fill="#007C52"/>
<path d="M41.8838 32.0689C39.5373 31.6984 37.0998 34.5584 39.8948 36.3654C42.4103 36.6709 44.8933 33.9279 41.8838 32.0689Z" fill="#007C52"/>
<path d="M93.9926 18.4645C98.1331 19.68 96.5926 15.4745 100.441 15.312C103.041 15.3835 104.672 17.1905 103.203 19.342C101.734 21.4935 99.1146 20.759 96.7031 22.9755C93.3881 25.2895 96.2806 28.4745 98.7961 27.2265C124.9 15.975 92.2116 3.15703 93.9926 18.4645Z" fill="#007C52"/>
<path d="M91.6789 32.4201C92.7969 34.1361 96.5669 34.7211 96.1509 31.4191C95.2214 29.6056 91.4384 29.3846 91.6789 32.4201Z" fill="#007C52"/>
<path d="M64.2429 23.58C63.7814 23.97 62.8259 25.114 63.9309 27.1355C65.2309 28.4355 67.8959 28.5395 69.2219 27.376C69.6574 26.986 70.5219 25.8355 69.3649 23.7685C68.1234 22.4685 65.4974 22.5075 64.2429 23.58ZM68.3509 26.3945C67.7009 27.0055 66.0629 26.9795 65.0489 26.3555C63.8334 24.139 66.8949 23.6255 68.2989 24.555C68.5979 25.1595 68.8384 25.933 68.3509 26.3945Z" fill="black"/>
<path d="M67.0511 6.6474C71.5621 5.5424 71.7376 10.0144 68.1626 11.7499C65.6146 13.0044 62.3126 17.7819 65.1921 19.9009C65.8988 20.4412 66.7756 20.7107 67.6638 20.6607C68.5521 20.6106 69.393 20.2442 70.0346 19.6279C79.1346 11.5094 77.9841 6.5629 76.4956 4.3334C71.4906 -2.9076 54.9546 1.3499 59.9011 11.4834C65.7511 13.9274 63.4566 7.8499 67.0511 6.6474ZM63.8661 3.0074C70.8016 -0.314101 84.6076 4.9119 69.0661 18.6984C67.0706 20.5184 63.9961 18.2564 65.9721 15.7669C67.1876 13.0369 70.6326 12.6859 71.7246 9.9169C73.0896 6.6149 69.5991 4.2944 66.6546 5.3669C62.5921 6.2769 64.5551 12.1074 60.7136 10.3719C59.4396 5.8999 62.1111 3.8329 63.8466 3.0074H63.8661Z" fill="black"/>
<path d="M21.9455 64.0228C18.156 62.8008 13.554 67.3313 17.662 70.3408C21.419 71.2963 26.3915 67.7278 21.9455 64.0228ZM22.147 67.6693C21.549 68.7483 19.664 69.4113 18.169 69.0993C15.868 66.8633 19.2155 64.7053 21.419 65.2513C22.043 65.8883 22.641 66.7853 22.147 67.6498V67.6693Z" fill="black"/>
<path d="M19.2296 60.7404C31.0596 38.0814 12.2421 33.4404 2.1346 44.3344C-0.374398 47.8964 0.561602 51.9004 4.7346 55.3389C4.8303 55.4202 4.94754 55.4721 5.07213 55.4883C5.19671 55.5044 5.32331 55.4841 5.4366 55.4299C12.3981 52.2644 5.2286 50.0219 9.6356 46.5509C17.4876 43.7364 14.7966 51.4389 11.5856 57.2434C10.1426 62.8139 16.4996 65.0499 19.2296 60.7404ZM14.3156 61.5009C13.0156 61.0004 12.4891 59.5509 12.8531 57.6009C14.0881 55.3974 17.6176 48.5009 15.3101 45.7449C12.2941 42.7549 4.9101 46.0179 7.0616 50.8149C7.4581 52.0629 7.7116 52.8364 5.2351 54.0649C-4.8659 45.4394 11.8911 37.1649 18.4366 41.2989C22.8176 44.0549 22.7526 50.6264 18.0726 60.1099C17.6918 60.7281 17.1149 61.201 16.4339 61.4531C15.753 61.7052 15.0072 61.722 14.3156 61.5009Z" fill="black"/>
<path d="M65.829 65.5635C65.7997 65.3911 65.7031 65.2374 65.5605 65.1362C65.4178 65.035 65.2409 64.9947 65.0685 65.024C64.8961 65.0533 64.7424 65.1499 64.6412 65.2925C64.54 65.4351 64.4997 65.6121 64.529 65.7845C64.8085 67.221 63.7425 67.0845 64.4315 67.975C65.348 68.5665 66.076 67.39 65.829 65.5635Z" fill="black"/>
<path d="M89.7553 64.4651C89.8251 64.0551 89.8556 63.6394 89.8464 63.2236C103.002 58.4981 99.3624 46.3236 89.7034 39.1736C76.2094 28.1171 45.4903 28.3121 41.0508 47.7666C19.8738 57.9521 26.3608 74.8651 42.0129 86.7276C41.0509 89.5226 39.2243 102.269 41.0703 102.328C41.1591 102.328 41.2469 102.31 41.3284 102.275C41.41 102.24 41.4834 102.188 41.5443 102.124C41.6052 102.059 41.6523 101.983 41.6825 101.899C41.7128 101.816 41.7257 101.727 41.7203 101.639C41.4928 94.4886 42.1168 85.8176 48.4998 75.3591C48.2008 70.2501 42.2078 85.2001 42.4158 85.3561C38.7796 82.5343 35.5472 79.2275 32.8088 75.5281C38.0088 76.0936 44.1579 73.2271 47.9734 68.8851C49.3479 70.8141 51.2774 72.2787 53.5049 73.0841C56.7549 78.1541 60.0894 80.6241 63.9893 76.9841C63.7158 79.2939 63.6072 81.6203 63.6643 83.9456C62.2799 83.9001 61.4674 84.6931 60.7849 86.3116C57.7754 84.2251 51.5223 83.1266 49.0328 85.8566C47.1803 88.5151 47.6678 98.0506 51.1843 102.107C53.6543 104.934 57.9898 105.389 62.3318 105.448C65.0813 106.748 68.6758 107.32 72.5433 107.32C89.4433 107.573 108.462 97.4786 104.003 79.2851C102.19 71.9986 96.6128 66.2006 89.7553 64.4651ZM102.645 79.2656C99.9863 86.0191 85.5303 87.5856 80.6098 84.0691C80.6813 83.5556 80.4408 80.0716 78.9459 80.5201C78.8672 80.5592 78.7973 80.6137 78.7403 80.6806C78.6834 80.7474 78.6405 80.825 78.6144 80.9089C78.5883 80.9927 78.5794 81.0809 78.5884 81.1683C78.5973 81.2556 78.6238 81.3403 78.6664 81.4171C81.3249 86.6561 74.7663 88.1446 70.0863 88.1771C68.5848 87.4621 66.6739 85.0766 65.0163 84.3226C64.9125 81.5593 65.0561 78.7923 65.4454 76.0546C68.2338 82.2231 75.0848 77.1986 77.3988 73.6171C82.0723 72.4341 87.7988 69.8471 89.3913 65.7456C95.7028 67.3251 100.851 72.6096 102.645 79.2656ZM66.4659 75.0991C69.4311 75.0551 72.386 74.7375 75.2928 74.1501C72.3938 77.2766 68.4093 79.7271 66.4659 75.0991ZM46.9008 62.5671C46.5138 64.251 46.6499 66.013 47.2908 67.6176C43.9693 71.8426 36.4033 75.5086 31.7428 73.9291C16.4418 49.7231 66.4594 39.9991 49.7868 50.1001C49.1369 49.8271 48.0254 48.7091 47.4664 49.6516C47.4272 49.7302 47.4044 49.8159 47.3993 49.9036C47.3942 49.9912 47.4069 50.079 47.4367 50.1617C47.4664 50.2443 47.5126 50.32 47.5725 50.3843C47.6323 50.4485 47.7046 50.5 47.7848 50.5356C51.9254 52.5376 53.7584 55.5666 50.9893 57.2696C50.4303 55.6251 48.9223 54.2341 46.7123 53.3696C46.5477 53.3067 46.3648 53.3117 46.2039 53.3836C46.043 53.4556 45.9173 53.5885 45.8543 53.7531C45.7914 53.9177 45.7965 54.1006 45.8684 54.2615C45.9403 54.4224 46.0732 54.5482 46.2379 54.6111C51.8929 56.4051 50.5083 63.3081 44.6908 60.6821C44.6119 60.6419 44.5256 60.6182 44.4373 60.6126C44.3489 60.6069 44.2603 60.6194 44.1769 60.6492C44.0935 60.6791 44.0171 60.7256 43.9523 60.786C43.8876 60.8464 43.8359 60.9195 43.8004 61.0006C43.4559 62.3461 46.1403 62.4501 46.9008 62.5671ZM60.4599 77.3611C58.9713 77.3611 57.3333 76.1781 55.5849 73.8186C58.2701 74.5743 61.0384 74.9956 63.8269 75.0731C62.7478 76.5681 61.6169 77.3416 60.4664 77.3611H60.4599ZM50.8008 70.0291C48.3633 68.0791 47.5508 65.5181 48.2983 62.4111C49.1472 62.2004 49.8991 61.7072 50.4307 61.0127C50.9622 60.3182 51.2417 59.4635 51.2234 58.5891C51.6616 58.4362 52.0673 58.2025 52.4193 57.9001C51.7108 62.5411 58.4644 64.9136 61.2789 61.3061C65.2699 56.1971 57.6129 50.6656 53.5959 55.0856C53.5114 53.6101 52.5884 52.1541 50.9959 50.8866C53.0509 51.4935 55.1929 51.7527 57.3334 51.6536C57.5674 52.2321 64.0414 55.1571 64.1713 52.9536C64.1619 52.8661 64.1347 52.7814 64.0915 52.7047C64.0483 52.628 63.99 52.5609 63.9201 52.5074C63.8503 52.454 63.7702 52.4152 63.6849 52.3936C63.5996 52.372 63.5108 52.3679 63.4238 52.3816C62.5138 52.5051 60.8238 52.0046 59.6213 51.4781C64.7459 50.9553 69.5163 48.6231 73.0763 44.9001C83.0538 51.4001 80.9543 57.2501 88.5008 63.1391C88.9883 71.6541 63.0144 77.7511 50.8008 70.0291ZM53.7648 57.7896C54.6618 52.5896 62.6568 54.9036 60.6939 59.7396C58.9974 58.7776 55.6434 58.5306 53.7779 59.0506C53.708 58.6333 53.7058 58.2075 53.7713 57.7896H53.7648ZM52.1918 101.19C48.9418 97.4656 48.7143 88.6191 50.1248 86.5911C50.5018 86.0451 51.5679 85.7006 52.9394 85.6096C50.9373 87.1826 50.5473 99.3181 55.3443 103.16C54.1375 102.794 53.0495 102.114 52.1918 101.19ZM94.3508 100.15C86.5508 105.35 70.1319 108.392 61.8964 103.667C62.9623 103.667 65.5493 104.057 65.2763 102.516C65.242 102.435 65.1914 102.361 65.1277 102.3C65.064 102.239 64.9884 102.191 64.9057 102.16C64.8229 102.129 64.7348 102.115 64.6465 102.119C64.5582 102.124 64.4718 102.146 64.3924 102.185C63.5669 102.562 61.2659 102.367 59.7838 101.957C58.8407 100.929 58.2055 99.6564 57.9508 98.2846C58.8738 98.6356 62.7738 99.9356 62.8453 98.1351C62.8291 98.0495 62.7959 97.968 62.7476 97.8956C62.6993 97.8231 62.6369 97.761 62.5641 97.7131C62.4914 97.6652 62.4097 97.6324 62.324 97.6167C62.2383 97.601 62.1504 97.6026 62.0653 97.6216C55.1623 98.2716 51.0153 89.7111 60.9929 91.5246C61.6428 91.6871 62.5009 91.7976 62.9428 91.2321C64.1324 89.4381 60.1154 86.8706 63.2549 85.2716C65.1399 84.9596 67.9543 89.0221 69.7548 89.4771C73.7069 89.6136 78.6468 88.6321 80.2133 85.4146C86.5833 88.9766 98.6604 87.2931 103.028 81.3066C104.237 88.7101 101.098 95.5481 94.3508 100.15Z" fill="black"/>
<path d="M105.803 46.8889C105.004 49.5734 111.406 50.0934 111.77 47.7274C112.264 45.3744 116.535 46.5509 117.172 48.0264C118.049 50.0609 114.994 51.5819 113.129 51.6209C110.152 51.6924 104.867 54.5654 106.2 57.5294C106.603 59.0309 108.949 60.0059 110.789 59.4144C114.845 58.4719 124.276 55.5144 124.25 48.7804C124.25 41.1234 111.25 35.5009 105.803 46.8889ZM110.483 58.1209C106.98 58.7709 106.024 55.7679 109.664 54.0259C112.433 52.3554 115.202 53.6684 117.523 51.1399C120.721 47.6689 116.873 45.1664 113.785 45.0819C112.18 45.0299 110.594 45.9724 110.457 47.5259C110.418 47.9094 107.669 48.1759 107.077 47.3244C115.267 31.9389 136.1 52.6479 110.483 58.1209Z" fill="black"/>
<path d="M67.4153 63.0089C67.5877 63.0089 67.7531 62.9404 67.875 62.8185C67.9969 62.6966 68.0653 62.5313 68.0653 62.3589C68.0653 62.1865 67.9969 62.0211 67.875 61.8993C67.7531 61.7774 67.5877 61.7089 67.4153 61.7089C64.1003 61.7089 63.6583 58.0819 67.4803 57.7309C67.5676 57.7244 67.6527 57.7004 67.7304 57.6603C67.8082 57.6202 67.8771 57.5648 67.9329 57.4974C67.9888 57.43 68.0304 57.3521 68.0554 57.2682C68.0804 57.1844 68.0882 57.0963 68.0783 57.0094C68.0719 56.9221 68.0479 56.837 68.0078 56.7593C67.9677 56.6815 67.9123 56.6126 67.8449 56.5568C67.7775 56.5009 67.6996 56.4593 67.6157 56.4343C67.5318 56.4093 67.4438 56.4015 67.3568 56.4114C61.9553 56.8339 62.2803 62.8984 67.4153 63.0089Z" fill="black"/>
<path d="M103.698 59.6743C99.1028 60.6038 101.345 65.7908 105.226 65.4528C105.999 65.3142 106.69 64.8875 107.16 64.259C107.631 63.6305 107.846 62.8468 107.761 62.0663C107.286 60.5908 105.401 59.4988 103.698 59.6743ZM105.057 64.1333C104.499 64.1551 103.947 64.0087 103.473 63.7132C102.999 63.4176 102.624 62.9866 102.398 62.4758C102.795 60.0708 105.785 60.9418 106.448 62.3523C106.344 63.0998 106.012 64.0098 105.057 64.1333Z" fill="black"/>
<path d="M74.9068 65.0107C74.9068 65.0107 74.0488 65.0107 72.6058 63.7107C72.4731 63.5935 72.2992 63.5338 72.1225 63.5447C71.9457 63.5557 71.7805 63.6364 71.6633 63.7692C71.5461 63.9019 71.4864 64.0758 71.4974 64.2526C71.5083 64.4293 71.5891 64.5945 71.7218 64.7117C73.4313 66.2132 74.5948 66.3302 74.9068 66.3302C75.0818 66.3302 75.2496 66.2607 75.3733 66.137C75.4971 66.0132 75.5666 65.8454 75.5666 65.6704C75.5666 65.4955 75.4971 65.3277 75.3733 65.2039C75.2496 65.0802 75.0818 65.0107 74.9068 65.0107Z" fill="black"/>
<path d="M72.0087 68.5599C69.4802 70.6724 67.3353 68.7809 66.9062 70.0874C66.9062 71.0884 67.4978 70.8934 68.7263 70.9974C69.2918 71.1079 73.7963 70.3474 72.9448 68.6314C72.8891 68.5637 72.8203 68.5079 72.7425 68.4674C72.6647 68.4269 72.5795 68.4026 72.492 68.3959C72.4046 68.3893 72.3167 68.4003 72.2336 68.4285C72.1506 68.4567 72.0741 68.5014 72.0087 68.5599Z" fill="black"/>
<path d="M62.5309 65.7C62.4473 65.6743 62.3593 65.6658 62.2723 65.6749C62.1853 65.6841 62.1011 65.7107 62.0246 65.7532C61.9481 65.7957 61.881 65.8532 61.8273 65.9222C61.7735 65.9912 61.7343 66.0704 61.7119 66.155C61.2699 67.663 60.4119 67.975 60.3274 67.9945C60.155 68.0419 60.0085 68.1558 59.9201 68.3113C59.8318 68.4667 59.8088 68.6508 59.8562 68.8232C59.9036 68.9956 60.0175 69.1421 60.1729 69.2305C60.3284 69.3189 60.5125 69.3419 60.6849 69.2945C60.7499 69.2945 62.3164 68.833 62.9859 66.545C63.0157 66.4598 63.0275 66.3692 63.0204 66.2792C63.0133 66.1892 62.9875 66.1017 62.9447 66.0222C62.9019 65.9427 62.843 65.873 62.7717 65.8175C62.7005 65.762 62.6185 65.722 62.5309 65.7Z" fill="black"/>
<path d="M70.1973 66.9998C70.3631 67.0318 70.5349 66.9981 70.6762 66.9056C70.8176 66.8132 70.9174 66.6694 70.9545 66.5047C70.9917 66.3399 70.9633 66.1672 70.8754 66.0231C70.7874 65.8789 70.6468 65.7746 70.4833 65.7323C69.8735 65.4012 69.3928 64.8746 69.1183 64.2373C68.8063 63.4313 67.5258 63.9383 67.8768 64.7248C68.6568 66.4733 69.7358 66.8958 70.1973 66.9998Z" fill="black"/>
<path d="M70.2995 55.9497C69.552 64.0552 83.0655 62.7682 79.8675 54.6497C77.9955 49.9047 70.436 51.5622 70.2995 55.9497ZM71.5995 56.1187C72.7045 50.4572 81.5445 53.5187 78.2555 58.8422C76.8645 57.2302 73.556 56.9507 71.71 57.5422C71.5838 57.0789 71.5463 56.596 71.5995 56.1187Z" fill="black"/>
<path d="M69.1441 52.5179C72.3096 51.9914 74.2401 49.3849 74.6756 48.6829C74.7695 48.5337 74.8004 48.3534 74.7614 48.1815C74.7224 48.0097 74.6167 47.8603 74.4676 47.7664C74.3185 47.6724 74.1381 47.6415 73.9662 47.6805C73.7944 47.7196 73.645 47.8252 73.5511 47.9744C72.5248 49.6177 70.8884 50.7866 69.0011 51.2244C68.8295 51.2433 68.6726 51.3296 68.5647 51.4643C68.4568 51.599 68.4069 51.7711 68.4258 51.9426C68.4448 52.1141 68.5311 52.2711 68.6658 52.379C68.8005 52.4869 68.9725 52.5368 69.1441 52.5179Z" fill="black"/>
</svg>
